0, 0, Header, 1, 2, 480
1, 0, Start_track
1, 0, Time_signature, 4, 2, 24, 8
1, 0, Key_signature, -2, "major"
1, 0, Key_signature, 0, "major"
1, 0, Key_signature, 0, "major"
1, 0, Tempo, 535713
1, 0, Control_c, 0, 121, 0
1, 0, Program_c, 0, 0
1, 0, Control_c, 0, 7, 127
1, 0, Control_c, 0, 10, 64
1, 0, Control_c, 0, 91, 30
1, 0, Control_c, 0, 93, 30
1, 0, MIDI_port, 0
1, 7680, Note_on_c, 0, 58, 96
1, 7680, Note_on_c, 0, 62, 96
1, 7680, Note_on_c, 0, 67, 96
1, 8159, Note_on_c, 0, 58, 0
1, 8159, Note_on_c, 0, 62, 0
1, 8159, Note_on_c, 0, 67, 0
1, 8160, Note_on_c, 0, 58, 96
1, 8160, Note_on_c, 0, 62, 96
1, 8160, Note_on_c, 0, 67, 96
1, 8639, Note_on_c, 0, 58, 0
1, 8639, Note_on_c, 0, 62, 0
1, 8639, Note_on_c, 0, 67, 0
1, 8640, Note_on_c, 0, 58, 96
1, 8640, Note_on_c, 0, 62, 96
1, 8640, Note_on_c, 0, 67, 96
1, 9119, Note_on_c, 0, 58, 0
1, 9119, Note_on_c, 0, 62, 0
1, 9119, Note_on_c, 0, 67, 0
1, 9120, Note_on_c, 0, 58, 96
1, 9120, Note_on_c, 0, 63, 96
1, 9479, Note_on_c, 0, 58, 0
1, 9479, Note_on_c, 0, 63, 0
1, 9480, Note_on_c, 0, 70, 96
1, 9599, Note_on_c, 0, 70, 0
1, 9600, Note_on_c, 0, 58, 96
1, 9600, Note_on_c, 0, 62, 96
1, 9600, Note_on_c, 0, 67, 96
1, 10079, Note_on_c, 0, 58, 0
1, 10079, Note_on_c, 0, 62, 0
1, 10079, Note_on_c, 0, 67, 0
1, 10080, Note_on_c, 0, 58, 96
1, 10080, Note_on_c, 0, 63, 96
1, 10439, Note_on_c, 0, 58, 0
1, 10439, Note_on_c, 0, 63, 0
1, 10440, Note_on_c, 0, 70, 96
1, 10559, Note_on_c, 0, 70, 0
1, 10560, Note_on_c, 0, 58, 96
1, 10560, Note_on_c, 0, 62, 96
1, 10560, Note_on_c, 0, 67, 96
1, 11519, Note_on_c, 0, 58, 0
1, 11519, Note_on_c, 0, 62, 0
1, 11519, Note_on_c, 0, 67, 0
1, 11520, Note_on_c, 0, 67, 96
1, 11520, Note_on_c, 0, 70, 96
1, 11520, Note_on_c, 0, 74, 96
1, 11999, Note_on_c, 0, 67, 0
1, 11999, Note_on_c, 0, 70, 0
1, 11999, Note_on_c, 0, 74, 0
1, 12000, Note_on_c, 0, 67, 96
1, 12000, Note_on_c, 0, 70, 96
1, 12000, Note_on_c, 0, 74, 96
1, 12479, Note_on_c, 0, 67, 0
1, 12479, Note_on_c, 0, 70, 0
1, 12479, Note_on_c, 0, 74, 0
1, 12480, Note_on_c, 0, 67, 96
1, 12480, Note_on_c, 0, 70, 96
1, 12480, Note_on_c, 0, 74, 96
1, 12959, Note_on_c, 0, 67, 0
1, 12959, Note_on_c, 0, 70, 0
1, 12959, Note_on_c, 0, 74, 0
1, 12960, Note_on_c, 0, 66, 96
1, 12960, Note_on_c, 0, 70, 96
1, 12960, Note_on_c, 0, 75, 96
1, 13319, Note_on_c, 0, 66, 0
1, 13319, Note_on_c, 0, 70, 0
1, 13319, Note_on_c, 0, 75, 0
1, 13320, Note_on_c, 0, 70, 96
1, 13439, Note_on_c, 0, 70, 0
1, 13440, Note_on_c, 0, 63, 96
1, 13440, Note_on_c, 0, 66, 96
1, 13919, Note_on_c, 0, 63, 0
1, 13919, Note_on_c, 0, 66, 0
1, 13920, Note_on_c, 0, 58, 96
1, 13920, Note_on_c, 0, 63, 96
1, 14279, Note_on_c, 0, 58, 0
1, 14279, Note_on_c, 0, 63, 0
1, 14280, Note_on_c, 0, 70, 96
1, 14399, Note_on_c, 0, 70, 0
1, 14400, Note_on_c, 0, 58, 96
1, 14400, Note_on_c, 0, 62, 96
1, 14400, Note_on_c, 0, 67, 96
1, 15359, Note_on_c, 0, 58, 0
1, 15359, Note_on_c, 0, 62, 0
1, 15359, Note_on_c, 0, 67, 0
1, 15360, Note_on_c, 0, 67, 96
1, 15360, Note_on_c, 0, 70, 96
1, 15360, Note_on_c, 0, 74, 96
1, 15360, Note_on_c, 0, 79, 96
1, 15839, Note_on_c, 0, 67, 0
1, 15839, Note_on_c, 0, 70, 0
1, 15839, Note_on_c, 0, 74, 0
1, 15839, Note_on_c, 0, 79, 0
1, 15840, Note_on_c, 0, 67, 96
1, 16199, Note_on_c, 0, 67, 0
1, 16200, Note_on_c, 0, 67, 96
1, 16319, Note_on_c, 0, 67, 0
1, 16320, Note_on_c, 0, 67, 96
1, 16320, Note_on_c, 0, 70, 96
1, 16320, Note_on_c, 0, 74, 96
1, 16320, Note_on_c, 0, 79, 96
1, 16799, Note_on_c, 0, 67, 0
1, 16799, Note_on_c, 0, 70, 0
1, 16799, Note_on_c, 0, 74, 0
1, 16799, Note_on_c, 0, 79, 0
1, 16800, Note_on_c, 0, 66, 96
1, 16800, Note_on_c, 0, 78, 96
1, 17159, Note_on_c, 0, 66, 0
1, 17159, Note_on_c, 0, 78, 0
1, 17160, Note_on_c, 0, 65, 96
1, 17160, Note_on_c, 0, 77, 96
1, 17279, Note_on_c, 0, 65, 0
1, 17279, Note_on_c, 0, 77, 0
1, 17280, Note_on_c, 0, 64, 96
1, 17280, Note_on_c, 0, 68, 96
1, 17280, Note_on_c, 0, 73, 96
1, 17280, Note_on_c, 0, 76, 96
1, 17399, Note_on_c, 0, 64, 0
1, 17399, Note_on_c, 0, 68, 0
1, 17399, Note_on_c, 0, 73, 0
1, 17399, Note_on_c, 0, 76, 0
1, 17400, Note_on_c, 0, 63, 96
1, 17400, Note_on_c, 0, 75, 96
1, 17519, Note_on_c, 0, 63, 0
1, 17519, Note_on_c, 0, 75, 0
1, 17520, Note_on_c, 0, 64, 96
1, 17520, Note_on_c, 0, 76, 96
1, 17639, Note_on_c, 0, 64, 0
1, 17639, Note_on_c, 0, 76, 0
1, 18000, Note_on_c, 0, 56, 96
1, 18000, Note_on_c, 0, 68, 96
1, 18239, Note_on_c, 0, 56, 0
1, 18239, Note_on_c, 0, 68, 0
1, 18240, Note_on_c, 0, 61, 96
1, 18240, Note_on_c, 0, 64, 96
1, 18240, Note_on_c, 0, 68, 96
1, 18240, Note_on_c, 0, 73, 96
1, 18719, Note_on_c, 0, 61, 0
1, 18719, Note_on_c, 0, 64, 0
1, 18719, Note_on_c, 0, 68, 0
1, 18719, Note_on_c, 0, 73, 0
1, 18720, Note_on_c, 0, 60, 96
1, 18720, Note_on_c, 0, 72, 96
1, 19079, Note_on_c, 0, 60, 0
1, 19079, Note_on_c, 0, 72, 0
1, 19080, Note_on_c, 0, 59, 96
1, 19080, Note_on_c, 0, 71, 96
1, 19199, Note_on_c, 0, 59, 0
1, 19199, Note_on_c, 0, 71, 0
1, 19200, Note_on_c, 0, 58, 96
1, 19200, Note_on_c, 0, 63, 96
1, 19200, Note_on_c, 0, 66, 96
1, 19200, Note_on_c, 0, 70, 96
1, 19319, Note_on_c, 0, 58, 0
1, 19319, Note_on_c, 0, 63, 0
1, 19319, Note_on_c, 0, 66, 0
1, 19319, Note_on_c, 0, 70, 0
1, 19320, Note_on_c, 0, 57, 96
1, 19320, Note_on_c, 0, 69, 96
1, 19439, Note_on_c, 0, 57, 0
1, 19439, Note_on_c, 0, 69, 0
1, 19440, Note_on_c, 0, 58, 96
1, 19440, Note_on_c, 0, 70, 96
1, 19559, Note_on_c, 0, 58, 0
1, 19559, Note_on_c, 0, 70, 0
1, 19920, Note_on_c, 0, 51, 96
1, 19920, Note_on_c, 0, 63, 96
1, 20159, Note_on_c, 0, 51, 0
1, 20159, Note_on_c, 0, 63, 0
1, 20160, Note_on_c, 0, 54, 96
1, 20160, Note_on_c, 0, 66, 96
1, 20639, Note_on_c, 0, 54, 0
1, 20639, Note_on_c, 0, 66, 0
1, 20640, Note_on_c, 0, 51, 96
1, 20640, Note_on_c, 0, 63, 96
1, 20999, Note_on_c, 0, 51, 0
1, 20999, Note_on_c, 0, 63, 0
1, 21000, Note_on_c, 0, 54, 96
1, 21000, Note_on_c, 0, 66, 96
1, 21119, Note_on_c, 0, 54, 0
1, 21119, Note_on_c, 0, 66, 0
1, 21120, Note_on_c, 0, 58, 96
1, 21120, Note_on_c, 0, 62, 96
1, 21120, Note_on_c, 0, 67, 96
1, 21120, Note_on_c, 0, 70, 96
1, 21599, Note_on_c, 0, 58, 0
1, 21599, Note_on_c, 0, 62, 0
1, 21599, Note_on_c, 0, 67, 0
1, 21599, Note_on_c, 0, 70, 0
1, 21600, Note_on_c, 0, 58, 96
1, 21600, Note_on_c, 0, 63, 96
1, 21600, Note_on_c, 0, 67, 96
1, 21959, Note_on_c, 0, 58, 0
1, 21959, Note_on_c, 0, 63, 0
1, 21959, Note_on_c, 0, 67, 0
1, 21960, Note_on_c, 0, 70, 96
1, 22079, Note_on_c, 0, 70, 0
1, 22080, Note_on_c, 0, 62, 96
1, 22080, Note_on_c, 0, 67, 96
1, 22080, Note_on_c, 0, 70, 96
1, 22080, Note_on_c, 0, 74, 96
1, 23039, Note_on_c, 0, 62, 0
1, 23039, Note_on_c, 0, 67, 0
1, 23039, Note_on_c, 0, 70, 0
1, 23039, Note_on_c, 0, 74, 0
1, 23040, Note_on_c, 0, 67, 96
1, 23040, Note_on_c, 0, 70, 96
1, 23040, Note_on_c, 0, 75, 96
1, 23040, Note_on_c, 0, 79, 96
1, 23519, Note_on_c, 0, 67, 0
1, 23519, Note_on_c, 0, 70, 0
1, 23519, Note_on_c, 0, 75, 0
1, 23519, Note_on_c, 0, 79, 0
1, 23520, Note_on_c, 0, 67, 96
1, 23879, Note_on_c, 0, 67, 0
1, 23880, Note_on_c, 0, 67, 96
1, 23999, Note_on_c, 0, 67, 0
1, 24000, Note_on_c, 0, 67, 96
1, 24000, Note_on_c, 0, 70, 96
1, 24000, Note_on_c, 0, 74, 96
1, 24000, Note_on_c, 0, 79, 96
1, 24479, Note_on_c, 0, 67, 0
1, 24479, Note_on_c, 0, 70, 0
1, 24479, Note_on_c, 0, 74, 0
1, 24479, Note_on_c, 0, 79, 0
1, 24480, Note_on_c, 0, 66, 96
1, 24480, Note_on_c, 0, 78, 96
1, 24839, Note_on_c, 0, 66, 0
1, 24839, Note_on_c, 0, 78, 0
1, 24840, Note_on_c, 0, 65, 96
1, 24840, Note_on_c, 0, 77, 96
1, 24959, Note_on_c, 0, 65, 0
1, 24959, Note_on_c, 0, 77, 0
1, 24960, Note_on_c, 0, 64, 96
1, 24960, Note_on_c, 0, 68, 96
1, 24960, Note_on_c, 0, 73, 96
1, 24960, Note_on_c, 0, 76, 96
1, 25079, Note_on_c, 0, 64, 0
1, 25079, Note_on_c, 0, 68, 0
1, 25079, Note_on_c, 0, 73, 0
1, 25079, Note_on_c, 0, 76, 0
1, 25080, Note_on_c, 0, 63, 96
1, 25080, Note_on_c, 0, 75, 96
1, 25199, Note_on_c, 0, 63, 0
1, 25199, Note_on_c, 0, 75, 0
1, 25200, Note_on_c, 0, 64, 96
1, 25200, Note_on_c, 0, 76, 96
1, 25319, Note_on_c, 0, 64, 0
1, 25319, Note_on_c, 0, 76, 0
1, 25680, Note_on_c, 0, 56, 96
1, 25680, Note_on_c, 0, 68, 96
1, 25919, Note_on_c, 0, 56, 0
1, 25919, Note_on_c, 0, 68, 0
1, 25920, Note_on_c, 0, 61, 96
1, 25920, Note_on_c, 0, 64, 96
1, 25920, Note_on_c, 0, 68, 96
1, 25920, Note_on_c, 0, 73, 96
1, 26399, Note_on_c, 0, 61, 0
1, 26399, Note_on_c, 0, 64, 0
1, 26399, Note_on_c, 0, 68, 0
1, 26399, Note_on_c, 0, 73, 0
1, 26400, Note_on_c, 0, 60, 96
1, 26400, Note_on_c, 0, 72, 96
1, 26759, Note_on_c, 0, 60, 0
1, 26759, Note_on_c, 0, 72, 0
1, 26760, Note_on_c, 0, 59, 96
1, 26760, Note_on_c, 0, 71, 96
1, 26879, Note_on_c, 0, 59, 0
1, 26879, Note_on_c, 0, 71, 0
1, 26880, Note_on_c, 0, 58, 96
1, 26880, Note_on_c, 0, 63, 96
1, 26880, Note_on_c, 0, 66, 96
1, 26880, Note_on_c, 0, 70, 96
1, 26999, Note_on_c, 0, 58, 0
1, 26999, Note_on_c, 0, 63, 0
1, 26999, Note_on_c, 0, 66, 0
1, 26999, Note_on_c, 0, 70, 0
1, 27000, Note_on_c, 0, 57, 96
1, 27000, Note_on_c, 0, 69, 96
1, 27119, Note_on_c, 0, 57, 0
1, 27119, Note_on_c, 0, 69, 0
1, 27120, Note_on_c, 0, 58, 96
1, 27120, Note_on_c, 0, 70, 96
1, 27239, Note_on_c, 0, 58, 0
1, 27239, Note_on_c, 0, 70, 0
1, 27600, Note_on_c, 0, 51, 96
1, 27600, Note_on_c, 0, 63, 96
1, 27839, Note_on_c, 0, 51, 0
1, 27839, Note_on_c, 0, 63, 0
1, 27840, Note_on_c, 0, 54, 96
1, 27840, Note_on_c, 0, 58, 96
1, 27840, Note_on_c, 0, 63, 96
1, 27840, Note_on_c, 0, 66, 96
1, 28319, Note_on_c, 0, 54, 0
1, 28319, Note_on_c, 0, 58, 0
1, 28319, Note_on_c, 0, 63, 0
1, 28319, Note_on_c, 0, 66, 0
1, 28320, Note_on_c, 0, 54, 96
1, 28320, Note_on_c, 0, 58, 96
1, 28320, Note_on_c, 0, 63, 96
1, 28679, Note_on_c, 0, 54, 0
1, 28679, Note_on_c, 0, 58, 0
1, 28679, Note_on_c, 0, 63, 0
1, 28680, Note_on_c, 0, 70, 96
1, 28799, Note_on_c, 0, 70, 0
1, 28800, Note_on_c, 0, 58, 96
1, 28800, Note_on_c, 0, 62, 96
1, 28800, Note_on_c, 0, 67, 96
1, 29279, Note_on_c, 0, 58, 0
1, 29279, Note_on_c, 0, 62, 0
1, 29279, Note_on_c, 0, 67, 0
1, 29280, Note_on_c, 0, 58, 96
1, 29280, Note_on_c, 0, 63, 96
1, 29639, Note_on_c, 0, 58, 0
1, 29639, Note_on_c, 0, 63, 0
1, 29640, Note_on_c, 0, 70, 96
1, 29759, Note_on_c, 0, 70, 0
1, 29760, Note_on_c, 0, 58, 96
1, 29760, Note_on_c, 0, 62, 96
1, 29760, Note_on_c, 0, 67, 96
1, 30719, Note_on_c, 0, 58, 0
1, 30719, Note_on_c, 0, 62, 0
1, 30719, Note_on_c, 0, 67, 0
1, 34560, Note_on_c, 0, 55, 80
1, 34560, Note_on_c, 0, 67, 80
1, 35039, Note_on_c, 0, 55, 0
1, 35039, Note_on_c, 0, 67, 0
1, 35040, Note_on_c, 0, 55, 80
1, 35040, Note_on_c, 0, 67, 80
1, 35279, Note_on_c, 0, 55, 0
1, 35279, Note_on_c, 0, 67, 0
1, 35280, Note_on_c, 0, 55, 80
1, 35280, Note_on_c, 0, 67, 80
1, 35399, Note_on_c, 0, 55, 0
1, 35399, Note_on_c, 0, 67, 0
1, 35400, Note_on_c, 0, 55, 80
1, 35400, Note_on_c, 0, 67, 80
1, 35519, Note_on_c, 0, 55, 0
1, 35519, Note_on_c, 0, 67, 0
1, 35520, Note_on_c, 0, 55, 80
1, 35520, Note_on_c, 0, 67, 80
1, 35759, Note_on_c, 0, 55, 0
1, 35759, Note_on_c, 0, 67, 0
1, 35760, Note_on_c, 0, 55, 80
1, 35760, Note_on_c, 0, 67, 80
1, 35879, Note_on_c, 0, 55, 0
1, 35879, Note_on_c, 0, 67, 0
1, 35880, Note_on_c, 0, 55, 80
1, 35880, Note_on_c, 0, 67, 80
1, 35999, Note_on_c, 0, 55, 0
1, 35999, Note_on_c, 0, 67, 0
1, 36000, Note_on_c, 0, 66, 96
1, 36000, Note_on_c, 0, 78, 96
1, 36119, Note_on_c, 0, 66, 0
1, 36119, Note_on_c, 0, 78, 0
1, 36120, Note_on_c, 0, 66, 96
1, 36120, Note_on_c, 0, 78, 96
1, 36239, Note_on_c, 0, 66, 0
1, 36239, Note_on_c, 0, 78, 0
1, 36240, Note_on_c, 0, 66, 96
1, 36240, Note_on_c, 0, 78, 96
1, 36479, Note_on_c, 0, 66, 0
1, 36479, Note_on_c, 0, 78, 0
1, 36480, Note_on_c, 0, 74, 96
1, 36719, Note_on_c, 0, 74, 0
1, 36720, Note_on_c, 0, 74, 98
1, 36839, Note_on_c, 0, 74, 0
1, 36840, Note_on_c, 0, 74, 99
1, 36959, Note_on_c, 0, 74, 0
1, 36960, Note_on_c, 0, 75, 100
1, 37079, Note_on_c, 0, 75, 0
1, 37080, Note_on_c, 0, 75, 101
1, 37199, Note_on_c, 0, 75, 0
1, 37200, Note_on_c, 0, 77, 102
1, 37439, Note_on_c, 0, 77, 0
1, 37440, Note_on_c, 0, 79, 105
1, 37679, Note_on_c, 0, 79, 0
1, 37680, Note_on_c, 0, 79, 107
1, 37799, Note_on_c, 0, 79, 0
1, 37800, Note_on_c, 0, 79, 108
1, 37919, Note_on_c, 0, 79, 0
1, 37920, Note_on_c, 0, 81, 109
1, 38039, Note_on_c, 0, 81, 0
1, 38040, Note_on_c, 0, 81, 110
1, 38159, Note_on_c, 0, 81, 0
1, 38160, Note_on_c, 0, 82, 112
1, 38399, Note_on_c, 0, 82, 0
1, 38400, Note_on_c, 0, 67, 33
1, 38639, Note_on_c, 0, 67, 0
1, 38640, Note_on_c, 0, 74, 33
1, 38879, Note_on_c, 0, 74, 0
1, 38880, Note_on_c, 0, 75, 33
1, 39119, Note_on_c, 0, 75, 0
1, 39120, Note_on_c, 0, 72, 33
1, 39359, Note_on_c, 0, 72, 0
1, 39360, Note_on_c, 0, 67, 33
1, 39599, Note_on_c, 0, 67, 0
1, 39600, Note_on_c, 0, 82, 33
1, 39839, Note_on_c, 0, 82, 0
1, 39840, Note_on_c, 0, 81, 33
1, 40079, Note_on_c, 0, 81, 0
1, 40080, Note_on_c, 0, 78, 33
1, 40319, Note_on_c, 0, 78, 0
1, 40320, Note_on_c, 0, 67, 33
1, 40559, Note_on_c, 0, 67, 0
1, 40560, Note_on_c, 0, 86, 33
1, 40799, Note_on_c, 0, 86, 0
1, 40800, Note_on_c, 0, 85, 33
1, 41039, Note_on_c, 0, 85, 0
1, 41040, Note_on_c, 0, 81, 33
1, 41279, Note_on_c, 0, 81, 0
1, 41280, Note_on_c, 0, 84, 33
1, 41280, Note_on_c, 0, 67, 33
1, 41519, Note_on_c, 0, 84, 0
1, 41519, Note_on_c, 0, 67, 0
1, 41520, Note_on_c, 0, 82, 33
1, 41759, Note_on_c, 0, 82, 0
1, 41760, Note_on_c, 0, 78, 33
1, 41760, Note_on_c, 0, 67, 33
1, 41999, Note_on_c, 0, 78, 0
1, 41999, Note_on_c, 0, 67, 0
1, 42000, Note_on_c, 0, 75, 33
1, 42239, Note_on_c, 0, 75, 0
1, 42240, Note_on_c, 0, 67, 33
1, 42479, Note_on_c, 0, 67, 0
1, 42480, Note_on_c, 0, 74, 33
1, 42719, Note_on_c, 0, 74, 0
1, 42720, Note_on_c, 0, 75, 33
1, 42959, Note_on_c, 0, 75, 0
1, 42960, Note_on_c, 0, 72, 33
1, 43199, Note_on_c, 0, 72, 0
1, 43200, Note_on_c, 0, 67, 33
1, 43439, Note_on_c, 0, 67, 0
1, 43440, Note_on_c, 0, 82, 33
1, 43679, Note_on_c, 0, 82, 0
1, 43680, Note_on_c, 0, 81, 33
1, 43919, Note_on_c, 0, 81, 0
1, 43920, Note_on_c, 0, 78, 33
1, 44159, Note_on_c, 0, 78, 0
1, 44160, Note_on_c, 0, 67, 33
1, 44399, Note_on_c, 0, 67, 0
1, 44400, Note_on_c, 0, 91, 33
1, 44639, Note_on_c, 0, 91, 0
1, 44640, Note_on_c, 0, 86, 33
1, 44879, Note_on_c, 0, 86, 0
1, 44880, Note_on_c, 0, 82, 33
1, 45119, Note_on_c, 0, 82, 0
1, 45120, Note_on_c, 0, 80, 33
1, 45120, Note_on_c, 0, 67, 33
1, 45359, Note_on_c, 0, 80, 0
1, 45359, Note_on_c, 0, 67, 0
1, 45360, Note_on_c, 0, 75, 33
1, 45599, Note_on_c, 0, 75, 0
1, 45600, Note_on_c, 0, 73, 33
1, 45839, Note_on_c, 0, 73, 0
1, 45840, Note_on_c, 0, 69, 33
1, 46079, Note_on_c, 0, 69, 0
1, 46320, Note_on_c, 0, 62, 49
1, 46559, Note_on_c, 0, 62, 0
1, 46560, Note_on_c, 0, 63, 49
1, 46799, Note_on_c, 0, 63, 0
1, 46800, Note_on_c, 0, 60, 49
1, 47039, Note_on_c, 0, 60, 0
1, 47280, Note_on_c, 0, 58, 49
1, 47280, Note_on_c, 0, 70, 49
1, 47519, Note_on_c, 0, 58, 0
1, 47519, Note_on_c, 0, 70, 0
1, 47520, Note_on_c, 0, 56, 49
1, 47520, Note_on_c, 0, 69, 49
1, 47759, Note_on_c, 0, 56, 0
1, 47759, Note_on_c, 0, 69, 0
1, 47760, Note_on_c, 0, 61, 49
1, 47760, Note_on_c, 0, 66, 49
1, 47999, Note_on_c, 0, 61, 0
1, 47999, Note_on_c, 0, 66, 0
1, 48240, Note_on_c, 0, 66, 49
1, 48240, Note_on_c, 0, 74, 49
1, 48479, Note_on_c, 0, 66, 0
1, 48479, Note_on_c, 0, 74, 0
1, 48480, Note_on_c, 0, 67, 49
1, 48480, Note_on_c, 0, 73, 49
1, 48719, Note_on_c, 0, 67, 0
1, 48719, Note_on_c, 0, 73, 0
1, 48720, Note_on_c, 0, 62, 49
1, 48720, Note_on_c, 0, 69, 49
1, 48959, Note_on_c, 0, 62, 0
1, 48959, Note_on_c, 0, 69, 0
1, 48960, Note_on_c, 0, 65, 49
1, 48960, Note_on_c, 0, 72, 49
1, 49199, Note_on_c, 0, 65, 0
1, 49199, Note_on_c, 0, 72, 0
1, 49200, Note_on_c, 0, 64, 54
1, 49200, Note_on_c, 0, 70, 54
1, 49439, Note_on_c, 0, 64, 0
1, 49439, Note_on_c, 0, 70, 0
1, 49440, Note_on_c, 0, 63, 59
1, 49440, Note_on_c, 0, 66, 59
1, 49679, Note_on_c, 0, 63, 0
1, 49679, Note_on_c, 0, 66, 0
1, 49680, Note_on_c, 0, 59, 64
1, 49680, Note_on_c, 0, 63, 64
1, 49919, Note_on_c, 0, 59, 0
1, 49919, Note_on_c, 0, 63, 0
1, 50160, Note_on_c, 0, 57, 64
1, 50160, Note_on_c, 0, 72, 64
1, 50399, Note_on_c, 0, 57, 0
1, 50399, Note_on_c, 0, 72, 0
1, 50400, Note_on_c, 0, 58, 64
1, 50400, Note_on_c, 0, 71, 64
1, 50639, Note_on_c, 0, 58, 0
1, 50639, Note_on_c, 0, 71, 0
1, 50640, Note_on_c, 0, 62, 64
1, 50640, Note_on_c, 0, 68, 64
1, 50879, Note_on_c, 0, 62, 0
1, 50879, Note_on_c, 0, 68, 0
1, 51120, Note_on_c, 0, 63, 64
1, 51120, Note_on_c, 0, 75, 64
1, 51359, Note_on_c, 0, 63, 0
1, 51359, Note_on_c, 0, 75, 0
1, 51360, Note_on_c, 0, 62, 64
1, 51360, Note_on_c, 0, 74, 64
1, 51599, Note_on_c, 0, 62, 0
1, 51599, Note_on_c, 0, 74, 0
1, 51600, Note_on_c, 0, 66, 64
1, 51600, Note_on_c, 0, 71, 64
1, 51839, Note_on_c, 0, 66, 0
1, 51839, Note_on_c, 0, 71, 0
1, 52080, Note_on_c, 0, 62, 64
1, 52080, Note_on_c, 0, 83, 64
1, 52319, Note_on_c, 0, 62, 0
1, 52319, Note_on_c, 0, 83, 0
1, 52320, Note_on_c, 0, 63, 64
1, 52320, Note_on_c, 0, 82, 64
1, 52559, Note_on_c, 0, 63, 0
1, 52559, Note_on_c, 0, 82, 0
1, 52560, Note_on_c, 0, 69, 64
1, 52560, Note_on_c, 0, 79, 64
1, 52799, Note_on_c, 0, 69, 0
1, 52799, Note_on_c, 0, 79, 0
1, 52800, Note_on_c, 0, 68, 64
1, 52800, Note_on_c, 0, 81, 64
1, 53039, Note_on_c, 0, 68, 0
1, 53039, Note_on_c, 0, 81, 0
1, 53040, Note_on_c, 0, 67, 64
1, 53040, Note_on_c, 0, 80, 64
1, 53279, Note_on_c, 0, 67, 0
1, 53279, Note_on_c, 0, 80, 0
1, 53280, Note_on_c, 0, 63, 64
1, 53280, Note_on_c, 0, 77, 64
1, 53519, Note_on_c, 0, 63, 0
1, 53519, Note_on_c, 0, 77, 0
1, 53520, Note_on_c, 0, 59, 64
1, 53520, Note_on_c, 0, 74, 64
1, 53759, Note_on_c, 0, 59, 0
1, 53759, Note_on_c, 0, 74, 0
1, 54000, Note_on_c, 0, 69, 64
1, 54239, Note_on_c, 0, 69, 0
1, 54240, Note_on_c, 0, 68, 64
1, 54479, Note_on_c, 0, 68, 0
1, 54480, Note_on_c, 0, 65, 64
1, 54719, Note_on_c, 0, 65, 0
1, 54960, Note_on_c, 0, 72, 64
1, 55199, Note_on_c, 0, 72, 0
1, 55200, Note_on_c, 0, 71, 64
1, 55439, Note_on_c, 0, 71, 0
1, 55440, Note_on_c, 0, 68, 64
1, 55679, Note_on_c, 0, 68, 0
1, 55920, Note_on_c, 0, 76, 64
1, 56159, Note_on_c, 0, 76, 0
1, 56160, Note_on_c, 0, 75, 64
1, 56399, Note_on_c, 0, 75, 0
1, 56400, Note_on_c, 0, 71, 64
1, 56639, Note_on_c, 0, 71, 0
1, 56880, Note_on_c, 0, 64, 64
1, 57119, Note_on_c, 0, 64, 0
1, 57120, Note_on_c, 0, 65, 64
1, 57359, Note_on_c, 0, 65, 0
1, 57360, Note_on_c, 0, 62, 64
1, 57599, Note_on_c, 0, 62, 0
1, 57840, Note_on_c, 0, 69, 64
1, 58079, Note_on_c, 0, 69, 0
1, 58080, Note_on_c, 0, 68, 64
1, 58319, Note_on_c, 0, 68, 0
1, 58320, Note_on_c, 0, 65, 64
1, 58559, Note_on_c, 0, 65, 0
1, 58800, Note_on_c, 0, 81, 64
1, 59039, Note_on_c, 0, 81, 0
1, 59040, Note_on_c, 0, 80, 64
1, 59279, Note_on_c, 0, 80, 0
1, 59280, Note_on_c, 0, 77, 64
1, 59519, Note_on_c, 0, 77, 0
1, 59520, Note_on_c, 0, 74, 64
1, 59759, Note_on_c, 0, 74, 0
1, 59760, Note_on_c, 0, 71, 64
1, 59999, Note_on_c, 0, 71, 0
1, 60000, Note_on_c, 0, 68, 64
1, 60239, Note_on_c, 0, 68, 0
1, 60240, Note_on_c, 0, 65, 64
1, 60479, Note_on_c, 0, 65, 0
1, 63600, Note_on_c, 0, 76, 64
1, 63839, Note_on_c, 0, 76, 0
1, 63840, Note_on_c, 0, 77, 64
1, 64079, Note_on_c, 0, 77, 0
1, 64080, Note_on_c, 0, 74, 64
1, 64319, Note_on_c, 0, 74, 0
1, 64560, Note_on_c, 0, 72, 64
1, 64799, Note_on_c, 0, 72, 0
1, 64800, Note_on_c, 0, 71, 64
1, 65039, Note_on_c, 0, 71, 0
1, 65040, Note_on_c, 0, 68, 64
1, 65279, Note_on_c, 0, 68, 0
1, 65520, Note_on_c, 0, 81, 64
1, 65759, Note_on_c, 0, 81, 0
1, 65760, Note_on_c, 0, 80, 64
1, 65999, Note_on_c, 0, 80, 0
1, 66000, Note_on_c, 0, 71, 64
1, 66239, Note_on_c, 0, 71, 0
1, 66240, Note_on_c, 0, 77, 64
1, 66479, Note_on_c, 0, 77, 0
1, 66480, Note_on_c, 0, 76, 64
1, 66719, Note_on_c, 0, 76, 0
1, 66720, Note_on_c, 0, 72, 64
1, 66959, Note_on_c, 0, 72, 0
1, 66960, Note_on_c, 0, 69, 64
1, 67199, Note_on_c, 0, 69, 0
1, 67200, Note_on_c, 0, 70, 64
1, 67679, Note_on_c, 0, 70, 0
1, 67680, Note_on_c, 0, 58, 64
1, 68039, Note_on_c, 0, 58, 0
1, 68040, Note_on_c, 0, 58, 64
1, 68159, Note_on_c, 0, 58, 0
1, 68160, Note_on_c, 0, 70, 64
1, 68639, Note_on_c, 0, 70, 0
1, 68640, Note_on_c, 0, 69, 64
1, 68999, Note_on_c, 0, 69, 0
1, 69000, Note_on_c, 0, 68, 64
1, 69119, Note_on_c, 0, 68, 0
1, 69120, Note_on_c, 0, 67, 64
1, 69239, Note_on_c, 0, 67, 0
1, 69240, Note_on_c, 0, 66, 64
1, 69359, Note_on_c, 0, 66, 0
1, 69360, Note_on_c, 0, 67, 64
1, 69479, Note_on_c, 0, 67, 0
1, 69600, Note_on_c, 0, 55, 64
1, 69719, Note_on_c, 0, 55, 0
1, 69720, Note_on_c, 0, 59, 64
1, 69839, Note_on_c, 0, 59, 0
1, 69840, Note_on_c, 0, 64, 64
1, 69959, Note_on_c, 0, 64, 0
1, 69960, Note_on_c, 0, 67, 64
1, 70079, Note_on_c, 0, 67, 0
1, 70080, Note_on_c, 0, 59, 64
1, 70199, Note_on_c, 0, 59, 0
1, 70200, Note_on_c, 0, 64, 64
1, 70319, Note_on_c, 0, 64, 0
1, 70320, Note_on_c, 0, 67, 64
1, 70439, Note_on_c, 0, 67, 0
1, 70440, Note_on_c, 0, 71, 64
1, 70559, Note_on_c, 0, 71, 0
1, 70560, Note_on_c, 0, 59, 64
1, 70602, Note_on_c, 0, 64, 64
1, 70644, Note_on_c, 0, 67, 64
1, 70686, Note_on_c, 0, 71, 64
1, 70728, Note_on_c, 0, 76, 64
1, 70799, Note_on_c, 0, 59, 0
1, 70799, Note_on_c, 0, 64, 0
1, 70799, Note_on_c, 0, 67, 0
1, 70799, Note_on_c, 0, 71, 0
1, 70799, Note_on_c, 0, 76, 0
1, 70800, Note_on_c, 0, 71, 64
1, 71039, Note_on_c, 0, 71, 0
1, 71280, Note_on_c, 0, 71, 64
1, 71280, Note_on_c, 0, 83, 64
1, 71519, Note_on_c, 0, 71, 0
1, 71519, Note_on_c, 0, 83, 0
1, 71520, Note_on_c, 0, 72, 64
1, 71520, Note_on_c, 0, 84, 64
1, 71759, Note_on_c, 0, 72, 0
1, 71759, Note_on_c, 0, 84, 0
1, 71760, Note_on_c, 0, 69, 64
1, 71760, Note_on_c, 0, 81, 64
1, 71999, Note_on_c, 0, 69, 0
1, 71999, Note_on_c, 0, 81, 0
1, 72240, Note_on_c, 0, 76, 64
1, 72240, Note_on_c, 0, 88, 64
1, 72479, Note_on_c, 0, 76, 0
1, 72479, Note_on_c, 0, 88, 0
1, 72480, Note_on_c, 0, 73, 64
1, 72480, Note_on_c, 0, 85, 64
1, 72719, Note_on_c, 0, 73, 0
1, 72719, Note_on_c, 0, 85, 0
1, 72720, Note_on_c, 0, 69, 64
1, 72720, Note_on_c, 0, 81, 64
1, 72959, Note_on_c, 0, 69, 0
1, 72959, Note_on_c, 0, 81, 0
1, 72960, Note_on_c, 0, 78, 64
1, 72960, Note_on_c, 0, 90, 64
1, 73199, Note_on_c, 0, 78, 0
1, 73199, Note_on_c, 0, 90, 0
1, 73440, Note_on_c, 0, 78, 64
1, 73440, Note_on_c, 0, 90, 64
1, 73679, Note_on_c, 0, 78, 0
1, 73679, Note_on_c, 0, 90, 0
1, 73680, Note_on_c, 0, 61, 64
1, 73919, Note_on_c, 0, 61, 0
1, 73920, Note_on_c, 0, 66, 64
1, 74159, Note_on_c, 0, 66, 0
1, 74160, Note_on_c, 0, 69, 64
1, 74239, Note_on_c, 0, 69, 0
1, 74240, Note_on_c, 0, 73, 64
1, 74319, Note_on_c, 0, 73, 0
1, 74320, Note_on_c, 0, 77, 64
1, 74399, Note_on_c, 0, 77, 0
1, 74400, Note_on_c, 0, 78, 64
1, 74639, Note_on_c, 0, 78, 0
1, 74640, Note_on_c, 0, 69, 64
1, 74879, Note_on_c, 0, 69, 0
1, 74880, Note_on_c, 0, 73, 64
1, 75119, Note_on_c, 0, 73, 0
1, 75120, Note_on_c, 0, 78, 64
1, 75199, Note_on_c, 0, 78, 0
1, 75200, Note_on_c, 0, 81, 64
1, 75279, Note_on_c, 0, 81, 0
1, 75280, Note_on_c, 0, 84, 64
1, 75359, Note_on_c, 0, 84, 0
1, 75360, Note_on_c, 0, 85, 64
1, 75599, Note_on_c, 0, 85, 0
1, 75600, Note_on_c, 0, 73, 64
1, 75839, Note_on_c, 0, 73, 0
1, 75840, Note_on_c, 0, 69, 64
1, 76079, Note_on_c, 0, 69, 0
1, 76080, Note_on_c, 0, 73, 64
1, 76159, Note_on_c, 0, 73, 0
1, 76160, Note_on_c, 0, 78, 64
1, 76239, Note_on_c, 0, 78, 0
1, 76240, Note_on_c, 0, 81, 64
1, 76319, Note_on_c, 0, 81, 0
1, 76320, Note_on_c, 0, 85, 64
1, 76559, Note_on_c, 0, 85, 0
1, 77040, Note_on_c, 0, 85, 64
1, 77279, Note_on_c, 0, 85, 0
1, 77280, Note_on_c, 0, 87, 64
1, 77519, Note_on_c, 0, 87, 0
1, 77520, Note_on_c, 0, 84, 64
1, 77759, Note_on_c, 0, 84, 0
1, 78000, Note_on_c, 0, 82, 64
1, 78239, Note_on_c, 0, 82, 0
1, 78240, Note_on_c, 0, 84, 64
1, 78479, Note_on_c, 0, 84, 0
1, 78480, Note_on_c, 0, 81, 64
1, 78719, Note_on_c, 0, 81, 0
1, 78960, Note_on_c, 0, 77, 64
1, 79199, Note_on_c, 0, 77, 0
1, 79200, Note_on_c, 0, 78, 64
1, 79439, Note_on_c, 0, 78, 0
1, 79440, Note_on_c, 0, 75, 64
1, 79679, Note_on_c, 0, 75, 0
1, 79680, Note_on_c, 0, 73, 64
1, 79919, Note_on_c, 0, 73, 0
1, 79920, Note_on_c, 0, 77, 64
1, 79999, Note_on_c, 0, 77, 0
1, 80000, Note_on_c, 0, 81, 64
1, 80079, Note_on_c, 0, 81, 0
1, 80080, Note_on_c, 0, 82, 64
1, 80159, Note_on_c, 0, 82, 0
1, 80160, Note_on_c, 0, 85, 64
1, 80399, Note_on_c, 0, 85, 0
1, 88320, Note_on_c, 0, 58, 64
1, 88320, Note_on_c, 0, 62, 64
1, 88320, Note_on_c, 0, 67, 64
1, 88799, Note_on_c, 0, 58, 0
1, 88799, Note_on_c, 0, 62, 0
1, 88799, Note_on_c, 0, 67, 0
1, 88800, Note_on_c, 0, 58, 64
1, 88800, Note_on_c, 0, 62, 64
1, 88800, Note_on_c, 0, 67, 64
1, 89279, Note_on_c, 0, 58, 0
1, 89279, Note_on_c, 0, 62, 0
1, 89279, Note_on_c, 0, 67, 0
1, 89280, Note_on_c, 0, 58, 64
1, 89280, Note_on_c, 0, 62, 64
1, 89280, Note_on_c, 0, 67, 64
1, 89759, Note_on_c, 0, 58, 0
1, 89759, Note_on_c, 0, 62, 0
1, 89759, Note_on_c, 0, 67, 0
1, 89760, Note_on_c, 0, 58, 64
1, 89760, Note_on_c, 0, 63, 64
1, 90119, Note_on_c, 0, 58, 0
1, 90119, Note_on_c, 0, 63, 0
1, 90120, Note_on_c, 0, 70, 64
1, 90239, Note_on_c, 0, 70, 0
1, 90240, Note_on_c, 0, 58, 64
1, 90240, Note_on_c, 0, 62, 64
1, 90240, Note_on_c, 0, 67, 64
1, 90719, Note_on_c, 0, 58, 0
1, 90719, Note_on_c, 0, 62, 0
1, 90719, Note_on_c, 0, 67, 0
1, 90720, Note_on_c, 0, 58, 64
1, 90720, Note_on_c, 0, 63, 64
1, 91079, Note_on_c, 0, 58, 0
1, 91079, Note_on_c, 0, 63, 0
1, 91080, Note_on_c, 0, 70, 64
1, 91199, Note_on_c, 0, 70, 0
1, 91200, Note_on_c, 0, 58, 64
1, 91200, Note_on_c, 0, 62, 64
1, 91200, Note_on_c, 0, 67, 64
1, 92159, Note_on_c, 0, 58, 0
1, 92159, Note_on_c, 0, 62, 0
1, 92159, Note_on_c, 0, 67, 0
1, 92160, Note_on_c, 0, 67, 64
1, 92160, Note_on_c, 0, 70, 64
1, 92160, Note_on_c, 0, 74, 64
1, 92639, Note_on_c, 0, 67, 0
1, 92639, Note_on_c, 0, 70, 0
1, 92639, Note_on_c, 0, 74, 0
1, 92640, Note_on_c, 0, 67, 64
1, 92640, Note_on_c, 0, 70, 64
1, 92640, Note_on_c, 0, 74, 64
1, 93119, Note_on_c, 0, 67, 0
1, 93119, Note_on_c, 0, 70, 0
1, 93119, Note_on_c, 0, 74, 0
1, 93120, Note_on_c, 0, 67, 64
1, 93120, Note_on_c, 0, 70, 64
1, 93120, Note_on_c, 0, 74, 64
1, 93599, Note_on_c, 0, 67, 0
1, 93599, Note_on_c, 0, 70, 0
1, 93599, Note_on_c, 0, 74, 0
1, 93600, Note_on_c, 0, 66, 64
1, 93600, Note_on_c, 0, 70, 64
1, 93600, Note_on_c, 0, 75, 64
1, 93959, Note_on_c, 0, 66, 0
1, 93959, Note_on_c, 0, 70, 0
1, 93959, Note_on_c, 0, 75, 0
1, 93960, Note_on_c, 0, 70, 64
1, 94079, Note_on_c, 0, 70, 0
1, 94080, Note_on_c, 0, 63, 64
1, 94080, Note_on_c, 0, 66, 64
1, 94559, Note_on_c, 0, 63, 0
1, 94559, Note_on_c, 0, 66, 0
1, 94560, Note_on_c, 0, 58, 64
1, 94560, Note_on_c, 0, 63, 64
1, 94919, Note_on_c, 0, 58, 0
1, 94919, Note_on_c, 0, 63, 0
1, 94920, Note_on_c, 0, 70, 64
1, 95039, Note_on_c, 0, 70, 0
1, 95040, Note_on_c, 0, 58, 64
1, 95040, Note_on_c, 0, 62, 64
1, 95040, Note_on_c, 0, 67, 64
1, 95999, Note_on_c, 0, 58, 0
1, 95999, Note_on_c, 0, 62, 0
1, 95999, Note_on_c, 0, 67, 0
1, 96000, Note_on_c, 0, 67, 64
1, 96000, Note_on_c, 0, 70, 64
1, 96000, Note_on_c, 0, 74, 64
1, 96000, Note_on_c, 0, 79, 64
1, 96479, Note_on_c, 0, 67, 0
1, 96479, Note_on_c, 0, 70, 0
1, 96479, Note_on_c, 0, 74, 0
1, 96479, Note_on_c, 0, 79, 0
1, 96480, Note_on_c, 0, 67, 64
1, 96839, Note_on_c, 0, 67, 0
1, 96840, Note_on_c, 0, 67, 64
1, 96959, Note_on_c, 0, 67, 0
1, 96960, Note_on_c, 0, 67, 64
1, 96960, Note_on_c, 0, 70, 64
1, 96960, Note_on_c, 0, 74, 64
1, 96960, Note_on_c, 0, 79, 64
1, 97439, Note_on_c, 0, 67, 0
1, 97439, Note_on_c, 0, 70, 0
1, 97439, Note_on_c, 0, 74, 0
1, 97439, Note_on_c, 0, 79, 0
1, 97440, Note_on_c, 0, 66, 64
1, 97440, Note_on_c, 0, 78, 64
1, 97799, Note_on_c, 0, 66, 0
1, 97799, Note_on_c, 0, 78, 0
1, 97800, Note_on_c, 0, 65, 64
1, 97800, Note_on_c, 0, 77, 64
1, 97919, Note_on_c, 0, 65, 0
1, 97919, Note_on_c, 0, 77, 0
1, 97920, Note_on_c, 0, 64, 64
1, 97920, Note_on_c, 0, 68, 64
1, 97920, Note_on_c, 0, 73, 64
1, 97920, Note_on_c, 0, 76, 64
1, 98039, Note_on_c, 0, 64, 0
1, 98039, Note_on_c, 0, 68, 0
1, 98039, Note_on_c, 0, 73, 0
1, 98039, Note_on_c, 0, 76, 0
1, 98040, Note_on_c, 0, 63, 64
1, 98040, Note_on_c, 0, 75, 64
1, 98159, Note_on_c, 0, 63, 0
1, 98159, Note_on_c, 0, 75, 0
1, 98160, Note_on_c, 0, 64, 64
1, 98160, Note_on_c, 0, 76, 64
1, 98279, Note_on_c, 0, 64, 0
1, 98279, Note_on_c, 0, 76, 0
1, 98640, Note_on_c, 0, 56, 64
1, 98640, Note_on_c, 0, 68, 64
1, 98879, Note_on_c, 0, 56, 0
1, 98879, Note_on_c, 0, 68, 0
1, 98880, Note_on_c, 0, 61, 64
1, 98880, Note_on_c, 0, 64, 64
1, 98880, Note_on_c, 0, 68, 64
1, 98880, Note_on_c, 0, 73, 64
1, 99359, Note_on_c, 0, 61, 0
1, 99359, Note_on_c, 0, 64, 0
1, 99359, Note_on_c, 0, 68, 0
1, 99359, Note_on_c, 0, 73, 0
1, 99360, Note_on_c, 0, 60, 64
1, 99360, Note_on_c, 0, 72, 64
1, 99719, Note_on_c, 0, 60, 0
1, 99719, Note_on_c, 0, 72, 0
1, 99720, Note_on_c, 0, 59, 64
1, 99720, Note_on_c, 0, 71, 64
1, 99839, Note_on_c, 0, 59, 0
1, 99839, Note_on_c, 0, 71, 0
1, 99840, Note_on_c, 0, 58, 64
1, 99840, Note_on_c, 0, 63, 64
1, 99840, Note_on_c, 0, 66, 64
1, 99840, Note_on_c, 0, 70, 64
1, 99959, Note_on_c, 0, 58, 0
1, 99959, Note_on_c, 0, 63, 0
1, 99959, Note_on_c, 0, 66, 0
1, 99959, Note_on_c, 0, 70, 0
1, 99960, Note_on_c, 0, 57, 64
1, 99960, Note_on_c, 0, 69, 64
1, 100079, Note_on_c, 0, 57, 0
1, 100079, Note_on_c, 0, 69, 0
1, 100080, Note_on_c, 0, 58, 64
1, 100080, Note_on_c, 0, 70, 64
1, 100199, Note_on_c, 0, 58, 0
1, 100199, Note_on_c, 0, 70, 0
1, 100560, Note_on_c, 0, 51, 64
1, 100560, Note_on_c, 0, 63, 64
1, 100799, Note_on_c, 0, 51, 0
1, 100799, Note_on_c, 0, 63, 0
1, 100800, Note_on_c, 0, 54, 64
1, 100800, Note_on_c, 0, 66, 64
1, 101279, Note_on_c, 0, 54, 0
1, 101279, Note_on_c, 0, 66, 0
1, 101280, Note_on_c, 0, 51, 64
1, 101280, Note_on_c, 0, 63, 64
1, 101639, Note_on_c, 0, 51, 0
1, 101639, Note_on_c, 0, 63, 0
1, 101640, Note_on_c, 0, 54, 64
1, 101640, Note_on_c, 0, 66, 64
1, 101759, Note_on_c, 0, 54, 0
1, 101759, Note_on_c, 0, 66, 0
1, 101760, Note_on_c, 0, 58, 64
1, 101760, Note_on_c, 0, 62, 64
1, 101760, Note_on_c, 0, 67, 64
1, 101760, Note_on_c, 0, 70, 64
1, 102239, Note_on_c, 0, 58, 0
1, 102239, Note_on_c, 0, 62, 0
1, 102239, Note_on_c, 0, 67, 0
1, 102239, Note_on_c, 0, 70, 0
1, 102240, Note_on_c, 0, 58, 64
1, 102240, Note_on_c, 0, 63, 64
1, 102240, Note_on_c, 0, 67, 64
1, 102599, Note_on_c, 0, 58, 0
1, 102599, Note_on_c, 0, 63, 0
1, 102599, Note_on_c, 0, 67, 0
1, 102600, Note_on_c, 0, 70, 64
1, 102719, Note_on_c, 0, 70, 0
1, 102720, Note_on_c, 0, 62, 64
1, 102720, Note_on_c, 0, 67, 64
1, 102720, Note_on_c, 0, 70, 64
1, 102720, Note_on_c, 0, 74, 64
1, 103679, Note_on_c, 0, 62, 0
1, 103679, Note_on_c, 0, 67, 0
1, 103679, Note_on_c, 0, 70, 0
1, 103679, Note_on_c, 0, 74, 0
1, 103680, Note_on_c, 0, 67, 64
1, 103680, Note_on_c, 0, 70, 64
1, 103680, Note_on_c, 0, 75, 64
1, 103680, Note_on_c, 0, 79, 64
1, 104159, Note_on_c, 0, 67, 0
1, 104159, Note_on_c, 0, 70, 0
1, 104159, Note_on_c, 0, 75, 0
1, 104159, Note_on_c, 0, 79, 0
1, 104160, Note_on_c, 0, 67, 64
1, 104519, Note_on_c, 0, 67, 0
1, 104520, Note_on_c, 0, 67, 64
1, 104639, Note_on_c, 0, 67, 0
1, 104640, Note_on_c, 0, 67, 64
1, 104640, Note_on_c, 0, 70, 64
1, 104640, Note_on_c, 0, 74, 64
1, 104640, Note_on_c, 0, 79, 64
1, 105119, Note_on_c, 0, 67, 0
1, 105119, Note_on_c, 0, 70, 0
1, 105119, Note_on_c, 0, 74, 0
1, 105119, Note_on_c, 0, 79, 0
1, 105120, Note_on_c, 0, 66, 64
1, 105120, Note_on_c, 0, 78, 64
1, 105479, Note_on_c, 0, 66, 0
1, 105479, Note_on_c, 0, 78, 0
1, 105480, Note_on_c, 0, 65, 64
1, 105480, Note_on_c, 0, 77, 64
1, 105599, Note_on_c, 0, 65, 0
1, 105599, Note_on_c, 0, 77, 0
1, 105600, Note_on_c, 0, 64, 64
1, 105600, Note_on_c, 0, 68, 64
1, 105600, Note_on_c, 0, 73, 64
1, 105600, Note_on_c, 0, 76, 64
1, 105719, Note_on_c, 0, 64, 0
1, 105719, Note_on_c, 0, 68, 0
1, 105719, Note_on_c, 0, 73, 0
1, 105719, Note_on_c, 0, 76, 0
1, 105720, Note_on_c, 0, 63, 64
1, 105720, Note_on_c, 0, 75, 64
1, 105839, Note_on_c, 0, 63, 0
1, 105839, Note_on_c, 0, 75, 0
1, 105840, Note_on_c, 0, 64, 64
1, 105840, Note_on_c, 0, 76, 64
1, 105959, Note_on_c, 0, 64, 0
1, 105959, Note_on_c, 0, 76, 0
1, 106320, Note_on_c, 0, 56, 64
1, 106320, Note_on_c, 0, 68, 64
1, 106559, Note_on_c, 0, 56, 0
1, 106559, Note_on_c, 0, 68, 0
1, 106560, Note_on_c, 0, 61, 64
1, 106560, Note_on_c, 0, 64, 64
1, 106560, Note_on_c, 0, 68, 64
1, 106560, Note_on_c, 0, 73, 64
1, 107039, Note_on_c, 0, 61, 0
1, 107039, Note_on_c, 0, 64, 0
1, 107039, Note_on_c, 0, 68, 0
1, 107039, Note_on_c, 0, 73, 0
1, 107040, Note_on_c, 0, 60, 64
1, 107040, Note_on_c, 0, 72, 64
1, 107399, Note_on_c, 0, 60, 0
1, 107399, Note_on_c, 0, 72, 0
1, 107400, Note_on_c, 0, 59, 64
1, 107400, Note_on_c, 0, 71, 64
1, 107519, Note_on_c, 0, 59, 0
1, 107519, Note_on_c, 0, 71, 0
1, 107520, Note_on_c, 0, 58, 64
1, 107520, Note_on_c, 0, 63, 64
1, 107520, Note_on_c, 0, 66, 64
1, 107520, Note_on_c, 0, 70, 64
1, 107639, Note_on_c, 0, 58, 0
1, 107639, Note_on_c, 0, 63, 0
1, 107639, Note_on_c, 0, 66, 0
1, 107639, Note_on_c, 0, 70, 0
1, 107640, Note_on_c, 0, 57, 64
1, 107640, Note_on_c, 0, 69, 64
1, 107759, Note_on_c, 0, 57, 0
1, 107759, Note_on_c, 0, 69, 0
1, 107760, Note_on_c, 0, 58, 64
1, 107760, Note_on_c, 0, 70, 64
1, 107879, Note_on_c, 0, 58, 0
1, 107879, Note_on_c, 0, 70, 0
1, 108240, Note_on_c, 0, 51, 64
1, 108240, Note_on_c, 0, 63, 64
1, 108479, Note_on_c, 0, 51, 0
1, 108479, Note_on_c, 0, 63, 0
1, 108480, Note_on_c, 0, 54, 64
1, 108480, Note_on_c, 0, 58, 64
1, 108480, Note_on_c, 0, 63, 64
1, 108480, Note_on_c, 0, 66, 64
1, 108959, Note_on_c, 0, 54, 0
1, 108959, Note_on_c, 0, 58, 0
1, 108959, Note_on_c, 0, 63, 0
1, 108959, Note_on_c, 0, 66, 0
1, 108960, Note_on_c, 0, 54, 64
1, 108960, Note_on_c, 0, 58, 64
1, 108960, Note_on_c, 0, 63, 64
1, 109319, Note_on_c, 0, 54, 0
1, 109319, Note_on_c, 0, 58, 0
1, 109319, Note_on_c, 0, 63, 0
1, 109320, Note_on_c, 0, 70, 64
1, 109439, Note_on_c, 0, 70, 0
1, 109440, Note_on_c, 0, 58, 64
1, 109440, Note_on_c, 0, 62, 64
1, 109440, Note_on_c, 0, 67, 64
1, 109919, Note_on_c, 0, 58, 0
1, 109919, Note_on_c, 0, 62, 0
1, 109919, Note_on_c, 0, 67, 0
1, 109920, Note_on_c, 0, 58, 64
1, 109920, Note_on_c, 0, 63, 64
1, 110279, Note_on_c, 0, 58, 0
1, 110279, Note_on_c, 0, 63, 0
1, 110280, Note_on_c, 0, 70, 64
1, 110399, Note_on_c, 0, 70, 0
1, 110400, Note_on_c, 0, 58, 64
1, 110400, Note_on_c, 0, 62, 64
1, 110400, Note_on_c, 0, 67, 64
1, 111359, Note_on_c, 0, 58, 0
1, 111359, Note_on_c, 0, 62, 0
1, 111359, Note_on_c, 0, 67, 0
1, 111360, Note_on_c, 0, 67, 64
1, 111360, Note_on_c, 0, 79, 64
1, 111839, Note_on_c, 0, 67, 0
1, 111839, Note_on_c, 0, 79, 0
1, 111840, Note_on_c, 0, 67, 64
1, 111840, Note_on_c, 0, 79, 64
1, 112319, Note_on_c, 0, 67, 0
1, 112319, Note_on_c, 0, 79, 0
1, 112320, Note_on_c, 0, 67, 64
1, 112320, Note_on_c, 0, 79, 64
1, 112799, Note_on_c, 0, 67, 0
1, 112799, Note_on_c, 0, 79, 0
1, 112800, Note_on_c, 0, 63, 64
1, 112800, Note_on_c, 0, 75, 64
1, 113159, Note_on_c, 0, 63, 0
1, 113159, Note_on_c, 0, 75, 0
1, 113160, Note_on_c, 0, 70, 64
1, 113160, Note_on_c, 0, 82, 64
1, 113279, Note_on_c, 0, 70, 0
1, 113279, Note_on_c, 0, 82, 0
1, 113280, Note_on_c, 0, 67, 64
1, 113280, Note_on_c, 0, 79, 64
1, 113759, Note_on_c, 0, 67, 0
1, 113759, Note_on_c, 0, 79, 0
1, 113760, Note_on_c, 0, 63, 64
1, 113760, Note_on_c, 0, 75, 64
1, 114119, Note_on_c, 0, 63, 0
1, 114119, Note_on_c, 0, 75, 0
1, 114120, Note_on_c, 0, 70, 64
1, 114120, Note_on_c, 0, 82, 64
1, 114239, Note_on_c, 0, 70, 0
1, 114239, Note_on_c, 0, 82, 0
1, 114240, Note_on_c, 0, 67, 64
1, 114240, Note_on_c, 0, 79, 64
1, 115199, Note_on_c, 0, 67, 0
1, 115199, Note_on_c, 0, 79, 0
1, 115200, Note_on_c, 0, 74, 96
1, 115200, Note_on_c, 0, 86, 96
1, 115679, Note_on_c, 0, 74, 0
1, 115679, Note_on_c, 0, 86, 0
1, 115680, Note_on_c, 0, 74, 96
1, 115680, Note_on_c, 0, 86, 96
1, 116159, Note_on_c, 0, 74, 0
1, 116159, Note_on_c, 0, 86, 0
1, 116160, Note_on_c, 0, 74, 96
1, 116160, Note_on_c, 0, 86, 96
1, 116639, Note_on_c, 0, 74, 0
1, 116639, Note_on_c, 0, 86, 0
1, 116640, Note_on_c, 0, 75, 96
1, 116640, Note_on_c, 0, 87, 96
1, 116999, Note_on_c, 0, 75, 0
1, 116999, Note_on_c, 0, 87, 0
1, 117000, Note_on_c, 0, 70, 96
1, 117000, Note_on_c, 0, 82, 96
1, 117119, Note_on_c, 0, 70, 0
1, 117119, Note_on_c, 0, 82, 0
1, 117120, Note_on_c, 0, 66, 96
1, 117120, Note_on_c, 0, 78, 96
1, 117599, Note_on_c, 0, 66, 0
1, 117599, Note_on_c, 0, 78, 0
1, 117600, Note_on_c, 0, 63, 96
1, 117600, Note_on_c, 0, 75, 96
1, 117959, Note_on_c, 0, 63, 0
1, 117959, Note_on_c, 0, 75, 0
1, 117960, Note_on_c, 0, 70, 96
1, 117960, Note_on_c, 0, 82, 96
1, 118079, Note_on_c, 0, 70, 0
1, 118079, Note_on_c, 0, 82, 0
1, 118080, Note_on_c, 0, 67, 96
1, 118080, Note_on_c, 0, 79, 96
1, 119039, Note_on_c, 0, 67, 0
1, 119039, Note_on_c, 0, 79, 0
1, 119040, Note_on_c, 0, 79, 96
1, 119040, Note_on_c, 0, 82, 96
1, 119040, Note_on_c, 0, 87, 96
1, 119040, Note_on_c, 0, 91, 96
1, 119519, Note_on_c, 0, 79, 0
1, 119519, Note_on_c, 0, 82, 0
1, 119519, Note_on_c, 0, 87, 0
1, 119519, Note_on_c, 0, 91, 0
1, 119520, Note_on_c, 0, 79, 96
1, 119879, Note_on_c, 0, 79, 0
1, 119880, Note_on_c, 0, 79, 96
1, 119999, Note_on_c, 0, 79, 0
1, 120000, Note_on_c, 0, 79, 96
1, 120000, Note_on_c, 0, 82, 96
1, 120000, Note_on_c, 0, 86, 96
1, 120000, Note_on_c, 0, 91, 96
1, 120479, Note_on_c, 0, 79, 0
1, 120479, Note_on_c, 0, 82, 0
1, 120479, Note_on_c, 0, 86, 0
1, 120479, Note_on_c, 0, 91, 0
1, 120480, Note_on_c, 0, 78, 96
1, 120480, Note_on_c, 0, 90, 96
1, 120839, Note_on_c, 0, 78, 0
1, 120839, Note_on_c, 0, 90, 0
1, 120840, Note_on_c, 0, 77, 96
1, 120840, Note_on_c, 0, 89, 96
1, 120959, Note_on_c, 0, 77, 0
1, 120959, Note_on_c, 0, 89, 0
1, 120960, Note_on_c, 0, 76, 96
1, 120960, Note_on_c, 0, 80, 96
1, 120960, Note_on_c, 0, 85, 96
1, 120960, Note_on_c, 0, 88, 96
1, 121079, Note_on_c, 0, 76, 0
1, 121079, Note_on_c, 0, 80, 0
1, 121079, Note_on_c, 0, 85, 0
1, 121079, Note_on_c, 0, 88, 0
1, 121080, Note_on_c, 0, 75, 96
1, 121080, Note_on_c, 0, 87, 96
1, 121199, Note_on_c, 0, 75, 0
1, 121199, Note_on_c, 0, 87, 0
1, 121200, Note_on_c, 0, 76, 96
1, 121200, Note_on_c, 0, 88, 96
1, 121319, Note_on_c, 0, 76, 0
1, 121319, Note_on_c, 0, 88, 0
1, 121680, Note_on_c, 0, 68, 96
1, 121680, Note_on_c, 0, 80, 96
1, 121919, Note_on_c, 0, 68, 0
1, 121919, Note_on_c, 0, 80, 0
1, 121920, Note_on_c, 0, 73, 96
1, 121920, Note_on_c, 0, 76, 96
1, 121920, Note_on_c, 0, 80, 96
1, 121920, Note_on_c, 0, 85, 96
1, 122399, Note_on_c, 0, 73, 0
1, 122399, Note_on_c, 0, 76, 0
1, 122399, Note_on_c, 0, 80, 0
1, 122399, Note_on_c, 0, 85, 0
1, 122400, Note_on_c, 0, 72, 96
1, 122400, Note_on_c, 0, 84, 96
1, 122759, Note_on_c, 0, 72, 0
1, 122759, Note_on_c, 0, 84, 0
1, 122760, Note_on_c, 0, 71, 96
1, 122760, Note_on_c, 0, 83, 96
1, 122879, Note_on_c, 0, 71, 0
1, 122879, Note_on_c, 0, 83, 0
1, 122880, Note_on_c, 0, 70, 96
1, 122880, Note_on_c, 0, 75, 96
1, 122880, Note_on_c, 0, 78, 96
1, 122880, Note_on_c, 0, 82, 96
1, 122999, Note_on_c, 0, 70, 0
1, 122999, Note_on_c, 0, 75, 0
1, 122999, Note_on_c, 0, 78, 0
1, 122999, Note_on_c, 0, 82, 0
1, 123000, Note_on_c, 0, 69, 96
1, 123000, Note_on_c, 0, 81, 96
1, 123119, Note_on_c, 0, 69, 0
1, 123119, Note_on_c, 0, 81, 0
1, 123120, Note_on_c, 0, 70, 96
1, 123120, Note_on_c, 0, 82, 96
1, 123239, Note_on_c, 0, 70, 0
1, 123239, Note_on_c, 0, 82, 0
1, 123600, Note_on_c, 0, 63, 96
1, 123600, Note_on_c, 0, 75, 96
1, 123839, Note_on_c, 0, 63, 0
1, 123839, Note_on_c, 0, 75, 0
1, 123840, Note_on_c, 0, 66, 96
1, 123840, Note_on_c, 0, 70, 96
1, 123840, Note_on_c, 0, 75, 96
1, 123840, Note_on_c, 0, 78, 96
1, 124319, Note_on_c, 0, 66, 0
1, 124319, Note_on_c, 0, 70, 0
1, 124319, Note_on_c, 0, 75, 0
1, 124319, Note_on_c, 0, 78, 0
1, 124320, Note_on_c, 0, 66, 96
1, 124320, Note_on_c, 0, 70, 96
1, 124320, Note_on_c, 0, 75, 96
1, 124679, Note_on_c, 0, 66, 0
1, 124679, Note_on_c, 0, 70, 0
1, 124679, Note_on_c, 0, 75, 0
1, 124680, Note_on_c, 0, 82, 96
1, 124799, Note_on_c, 0, 82, 0
1, 124800, Note_on_c, 0, 70, 96
1, 124800, Note_on_c, 0, 74, 96
1, 124800, Note_on_c, 0, 79, 96
1, 125279, Note_on_c, 0, 70, 0
1, 125279, Note_on_c, 0, 74, 0
1, 125279, Note_on_c, 0, 79, 0
1, 125280, Note_on_c, 0, 70, 96
1, 125280, Note_on_c, 0, 75, 96
1, 125639, Note_on_c, 0, 70, 0
1, 125639, Note_on_c, 0, 75, 0
1, 125640, Note_on_c, 0, 82, 96
1, 125759, Note_on_c, 0, 82, 0
1, 125760, Note_on_c, 0, 70, 96
1, 125760, Note_on_c, 0, 74, 96
1, 125760, Note_on_c, 0, 79, 96
1, 126719, Note_on_c, 0, 70, 0
1, 126719, Note_on_c, 0, 74, 0
1, 126719, Note_on_c, 0, 79, 0
1, 134400, Note_on_c, 0, 58, 96
1, 134400, Note_on_c, 0, 62, 96
1, 134400, Note_on_c, 0, 67, 96
1, 134879, Note_on_c, 0, 58, 0
1, 134879, Note_on_c, 0, 62, 0
1, 134879, Note_on_c, 0, 67, 0
1, 134880, Note_on_c, 0, 58, 96
1, 134880, Note_on_c, 0, 62, 96
1, 134880, Note_on_c, 0, 67, 96
1, 135359, Note_on_c, 0, 58, 0
1, 135359, Note_on_c, 0, 62, 0
1, 135359, Note_on_c, 0, 67, 0
1, 135360, Note_on_c, 0, 58, 96
1, 135360, Note_on_c, 0, 62, 96
1, 135360, Note_on_c, 0, 67, 96
1, 135839, Note_on_c, 0, 58, 0
1, 135839, Note_on_c, 0, 62, 0
1, 135839, Note_on_c, 0, 67, 0
1, 135840, Note_on_c, 0, 58, 96
1, 135840, Note_on_c, 0, 63, 96
1, 136199, Note_on_c, 0, 58, 0
1, 136199, Note_on_c, 0, 63, 0
1, 136200, Note_on_c, 0, 70, 96
1, 136319, Note_on_c, 0, 70, 0
1, 136320, Note_on_c, 0, 58, 96
1, 136320, Note_on_c, 0, 62, 96
1, 136320, Note_on_c, 0, 67, 96
1, 136799, Note_on_c, 0, 58, 0
1, 136799, Note_on_c, 0, 62, 0
1, 136799, Note_on_c, 0, 67, 0
1, 136800, Note_on_c, 0, 58, 96
1, 136800, Note_on_c, 0, 63, 96
1, 137159, Note_on_c, 0, 58, 0
1, 137159, Note_on_c, 0, 63, 0
1, 137160, Note_on_c, 0, 70, 96
1, 137279, Note_on_c, 0, 70, 0
1, 137280, Note_on_c, 0, 58, 96
1, 137280, Note_on_c, 0, 62, 96
1, 137280, Note_on_c, 0, 67, 96
1, 137759, Note_on_c, 0, 58, 0
1, 137759, Note_on_c, 0, 62, 0
1, 137759, Note_on_c, 0, 67, 0
1, 137760, Note_on_c, 0, 58, 96
1, 137760, Note_on_c, 0, 63, 96
1, 138119, Note_on_c, 0, 58, 0
1, 138119, Note_on_c, 0, 63, 0
1, 138120, Note_on_c, 0, 70, 96
1, 138239, Note_on_c, 0, 70, 0
1, 138240, Note_on_c, 0, 58, 96
1, 138240, Note_on_c, 0, 62, 96
1, 138240, Note_on_c, 0, 67, 96
1, 138719, Note_on_c, 0, 58, 0
1, 138719, Note_on_c, 0, 62, 0
1, 138719, Note_on_c, 0, 67, 0
1, 138720, Note_on_c, 0, 67, 96
1, 138959, Note_on_c, 0, 67, 0
1, 138960, Note_on_c, 0, 67, 96
1, 139039, Note_on_c, 0, 67, 0
1, 139040, Note_on_c, 0, 67, 96
1, 139119, Note_on_c, 0, 67, 0
1, 139120, Note_on_c, 0, 67, 96
1, 139199, Note_on_c, 0, 67, 0
1, 139200, Note_on_c, 0, 67, 96
1, 139439, Note_on_c, 0, 67, 0
1, 139440, Note_on_c, 0, 67, 96
1, 139559, Note_on_c, 0, 67, 0
1, 139560, Note_on_c, 0, 67, 96
1, 139679, Note_on_c, 0, 67, 0
1, 139680, Note_on_c, 0, 67, 96
1, 139799, Note_on_c, 0, 67, 0
1, 139800, Note_on_c, 0, 67, 96
1, 139919, Note_on_c, 0, 67, 0
1, 139920, Note_on_c, 0, 67, 96
1, 140159, Note_on_c, 0, 67, 0
1, 140160, Note_on_c, 0, 67, 96
1, 140639, Note_on_c, 0, 67, 0
1, 140640, Note_on_c, 0, 67, 96
1, 140879, Note_on_c, 0, 67, 0
1, 140880, Note_on_c, 0, 67, 96
1, 140959, Note_on_c, 0, 67, 0
1, 140960, Note_on_c, 0, 67, 96
1, 141039, Note_on_c, 0, 67, 0
1, 141040, Note_on_c, 0, 67, 96
1, 141119, Note_on_c, 0, 67, 0
1, 141120, Note_on_c, 0, 67, 96
1, 141359, Note_on_c, 0, 67, 0
1, 141360, Note_on_c, 0, 67, 96
1, 141479, Note_on_c, 0, 67, 0
1, 141480, Note_on_c, 0, 67, 96
1, 141599, Note_on_c, 0, 67, 0
1, 141600, Note_on_c, 0, 67, 96
1, 141719, Note_on_c, 0, 67, 0
1, 141720, Note_on_c, 0, 67, 96
1, 141839, Note_on_c, 0, 67, 0
1, 141840, Note_on_c, 0, 67, 96
1, 142079, Note_on_c, 0, 67, 0
1, 142080, Note_on_c, 0, 67, 96
1, 142159, Note_on_c, 0, 67, 0
1, 142160, Note_on_c, 0, 67, 96
1, 142239, Note_on_c, 0, 67, 0
1, 142240, Note_on_c, 0, 67, 96
1, 142319, Note_on_c, 0, 67, 0
1, 142320, Note_on_c, 0, 59, 80
1, 142320, Note_on_c, 0, 63, 80
1, 142320, Note_on_c, 0, 68, 80
1, 142559, Note_on_c, 0, 59, 0
1, 142559, Note_on_c, 0, 63, 0
1, 142559, Note_on_c, 0, 68, 0
1, 144480, Note_on_c, 0, 63, 107
1, 144559, Note_on_c, 0, 63, 0
1, 144560, Note_on_c, 0, 65, 108
1, 144639, Note_on_c, 0, 65, 0
1, 144640, Note_on_c, 0, 67, 109
1, 144719, Note_on_c, 0, 67, 0
1, 144720, Note_on_c, 0, 69, 110
1, 144799, Note_on_c, 0, 69, 0
1, 144800, Note_on_c, 0, 70, 111
1, 144879, Note_on_c, 0, 70, 0
1, 144880, Note_on_c, 0, 72, 112
1, 144959, Note_on_c, 0, 72, 0
1, 144960, Note_on_c, 0, 74, 113
1, 145039, Note_on_c, 0, 74, 0
1, 145040, Note_on_c, 0, 72, 114
1, 145119, Note_on_c, 0, 72, 0
1, 145120, Note_on_c, 0, 74, 115
1, 145199, Note_on_c, 0, 74, 0
1, 145200, Note_on_c, 0, 75, 116
1, 145279, Note_on_c, 0, 75, 0
1, 145280, Note_on_c, 0, 78, 117
1, 145359, Note_on_c, 0, 78, 0
1, 145360, Note_on_c, 0, 79, 118
1, 145439, Note_on_c, 0, 79, 0
1, 145440, Note_on_c, 0, 81, 119
1, 145519, Note_on_c, 0, 81, 0
1, 145520, Note_on_c, 0, 82, 120
1, 145599, Note_on_c, 0, 82, 0
1, 145600, Note_on_c, 0, 84, 121
1, 145679, Note_on_c, 0, 84, 0
1, 145680, Note_on_c, 0, 86, 122
1, 145759, Note_on_c, 0, 86, 0
1, 145760, Note_on_c, 0, 87, 123
1, 145839, Note_on_c, 0, 87, 0
1, 145840, Note_on_c, 0, 90, 124
1, 145919, Note_on_c, 0, 90, 0
1, 145920, Note_on_c, 0, 79, 126
1, 145920, Note_on_c, 0, 82, 126
1, 145920, Note_on_c, 0, 91, 126
1, 146399, Note_on_c, 0, 79, 0
1, 146399, Note_on_c, 0, 82, 0
1, 146399, Note_on_c, 0, 91, 0
1, 146400, Note_on_c, 0, 79, 126
1, 146400, Note_on_c, 0, 82, 126
1, 146400, Note_on_c, 0, 91, 126
1, 146639, Note_on_c, 0, 79, 0
1, 146639, Note_on_c, 0, 82, 0
1, 146639, Note_on_c, 0, 91, 0
1, 146640, Note_on_c, 0, 79, 126
1, 146640, Note_on_c, 0, 82, 126
1, 146640, Note_on_c, 0, 91, 126
1, 146719, Note_on_c, 0, 79, 0
1, 146719, Note_on_c, 0, 82, 0
1, 146719, Note_on_c, 0, 91, 0
1, 146720, Note_on_c, 0, 79, 126
1, 146720, Note_on_c, 0, 82, 126
1, 146720, Note_on_c, 0, 91, 126
1, 146799, Note_on_c, 0, 79, 0
1, 146799, Note_on_c, 0, 82, 0
1, 146799, Note_on_c, 0, 91, 0
1, 146800, Note_on_c, 0, 79, 126
1, 146800, Note_on_c, 0, 82, 126
1, 146800, Note_on_c, 0, 91, 126
1, 146879, Note_on_c, 0, 79, 0
1, 146879, Note_on_c, 0, 82, 0
1, 146879, Note_on_c, 0, 91, 0
1, 146880, Note_on_c, 0, 75, 126
1, 146880, Note_on_c, 0, 79, 126
1, 146880, Note_on_c, 0, 87, 126
1, 146999, Note_on_c, 0, 75, 0
1, 146999, Note_on_c, 0, 79, 0
1, 146999, Note_on_c, 0, 87, 0
1, 147000, Note_on_c, 0, 75, 126
1, 147000, Note_on_c, 0, 79, 126
1, 147000, Note_on_c, 0, 87, 126
1, 147119, Note_on_c, 0, 75, 0
1, 147119, Note_on_c, 0, 79, 0
1, 147119, Note_on_c, 0, 87, 0
1, 147120, Note_on_c, 0, 79, 126
1, 147120, Note_on_c, 0, 82, 126
1, 147120, Note_on_c, 0, 91, 126
1, 147239, Note_on_c, 0, 79, 0
1, 147239, Note_on_c, 0, 82, 0
1, 147239, Note_on_c, 0, 91, 0
1, 147600, Note_on_c, 0, 75, 126
1, 147600, Note_on_c, 0, 79, 126
1, 147600, Note_on_c, 0, 87, 126
1, 147679, Note_on_c, 0, 75, 0
1, 147679, Note_on_c, 0, 79, 0
1, 147679, Note_on_c, 0, 87, 0
1, 147680, Note_on_c, 0, 75, 126
1, 147680, Note_on_c, 0, 79, 126
1, 147680, Note_on_c, 0, 87, 126
1, 147759, Note_on_c, 0, 75, 0
1, 147759, Note_on_c, 0, 79, 0
1, 147759, Note_on_c, 0, 87, 0
1, 147760, Note_on_c, 0, 75, 126
1, 147760, Note_on_c, 0, 79, 126
1, 147760, Note_on_c, 0, 87, 126
1, 147839, Note_on_c, 0, 75, 0
1, 147839, Note_on_c, 0, 79, 0
1, 147839, Note_on_c, 0, 87, 0
1, 147840, Note_on_c, 0, 75, 126
1, 147840, Note_on_c, 0, 79, 126
1, 147840, Note_on_c, 0, 87, 126
1, 147919, Note_on_c, 0, 75, 0
1, 147919, Note_on_c, 0, 79, 0
1, 147919, Note_on_c, 0, 87, 0
1, 147920, Note_on_c, 0, 75, 126
1, 147920, Note_on_c, 0, 79, 126
1, 147920, Note_on_c, 0, 87, 126
1, 147999, Note_on_c, 0, 75, 0
1, 147999, Note_on_c, 0, 79, 0
1, 147999, Note_on_c, 0, 87, 0
1, 148000, Note_on_c, 0, 75, 126
1, 148000, Note_on_c, 0, 79, 126
1, 148000, Note_on_c, 0, 87, 126
1, 148079, Note_on_c, 0, 75, 0
1, 148079, Note_on_c, 0, 79, 0
1, 148079, Note_on_c, 0, 87, 0
1, 148080, Note_on_c, 0, 79, 126
1, 148080, Note_on_c, 0, 82, 126
1, 148080, Note_on_c, 0, 91, 126
1, 148199, Note_on_c, 0, 79, 0
1, 148199, Note_on_c, 0, 82, 0
1, 148199, Note_on_c, 0, 91, 0
1, 148560, Note_on_c, 0, 75, 126
1, 148560, Note_on_c, 0, 79, 126
1, 148560, Note_on_c, 0, 87, 126
1, 148639, Note_on_c, 0, 75, 0
1, 148639, Note_on_c, 0, 79, 0
1, 148639, Note_on_c, 0, 87, 0
1, 148640, Note_on_c, 0, 75, 126
1, 148640, Note_on_c, 0, 79, 126
1, 148640, Note_on_c, 0, 87, 126
1, 148719, Note_on_c, 0, 75, 0
1, 148719, Note_on_c, 0, 79, 0
1, 148719, Note_on_c, 0, 87, 0
1, 148720, Note_on_c, 0, 75, 126
1, 148720, Note_on_c, 0, 79, 126
1, 148720, Note_on_c, 0, 87, 126
1, 148799, Note_on_c, 0, 75, 0
1, 148799, Note_on_c, 0, 79, 0
1, 148799, Note_on_c, 0, 87, 0
1, 148800, Note_on_c, 0, 79, 126
1, 148800, Note_on_c, 0, 82, 126
1, 148800, Note_on_c, 0, 91, 126
1, 148919, Note_on_c, 0, 79, 0
1, 148919, Note_on_c, 0, 82, 0
1, 148919, Note_on_c, 0, 91, 0
1, 149040, Note_on_c, 0, 55, 126
1, 149040, Note_on_c, 0, 67, 126
1, 149119, Note_on_c, 0, 55, 0
1, 149119, Note_on_c, 0, 67, 0
1, 149120, Note_on_c, 0, 55, 126
1, 149120, Note_on_c, 0, 67, 126
1, 149199, Note_on_c, 0, 55, 0
1, 149199, Note_on_c, 0, 67, 0
1, 149200, Note_on_c, 0, 55, 126
1, 149200, Note_on_c, 0, 67, 126
1, 149279, Note_on_c, 0, 55, 0
1, 149279, Note_on_c, 0, 67, 0
1, 149280, Note_on_c, 0, 55, 126
1, 149280, Note_on_c, 0, 67, 126
1, 149759, Note_on_c, 0, 55, 0
1, 149759, Note_on_c, 0, 67, 0
1, 149760, End_track
2, 0, Start_track
2, 0, Key_signature, -2, "major"
2, 0, Key_signature, 0, "major"
2, 0, Key_signature, 0, "major"
2, 0, MIDI_port, 0
2, 0, Note_on_c, 0, 55, 64
2, 0, Note_on_c, 0, 43, 64
2, 479, Note_on_c, 0, 55, 0
2, 479, Note_on_c, 0, 43, 0
2, 480, Note_on_c, 0, 55, 64
2, 480, Note_on_c, 0, 43, 64
2, 719, Note_on_c, 0, 55, 0
2, 720, Note_on_c, 0, 55, 64
2, 799, Note_on_c, 0, 55, 0
2, 800, Note_on_c, 0, 55, 64
2, 879, Note_on_c, 0, 55, 0
2, 880, Note_on_c, 0, 55, 64
2, 959, Note_on_c, 0, 43, 0
2, 959, Note_on_c, 0, 55, 0
2, 960, Note_on_c, 0, 55, 64
2, 960, Note_on_c, 0, 43, 64
2, 1199, Note_on_c, 0, 55, 0
2, 1200, Note_on_c, 0, 55, 64
2, 1319, Note_on_c, 0, 55, 0
2, 1320, Note_on_c, 0, 55, 64
2, 1439, Note_on_c, 0, 43, 0
2, 1439, Note_on_c, 0, 55, 0
2, 1440, Note_on_c, 0, 54, 64
2, 1440, Note_on_c, 0, 39, 64
2, 1559, Note_on_c, 0, 54, 0
2, 1560, Note_on_c, 0, 54, 64
2, 1679, Note_on_c, 0, 54, 0
2, 1680, Note_on_c, 0, 54, 64
2, 1919, Note_on_c, 0, 39, 0
2, 1919, Note_on_c, 0, 54, 0
2, 1920, Note_on_c, 0, 55, 64
2, 1920, Note_on_c, 0, 43, 64
2, 2399, Note_on_c, 0, 55, 0
2, 2399, Note_on_c, 0, 43, 0
2, 2400, Note_on_c, 0, 55, 64
2, 2400, Note_on_c, 0, 43, 64
2, 2639, Note_on_c, 0, 55, 0
2, 2640, Note_on_c, 0, 55, 64
2, 2719, Note_on_c, 0, 55, 0
2, 2720, Note_on_c, 0, 55, 64
2, 2799, Note_on_c, 0, 55, 0
2, 2800, Note_on_c, 0, 55, 64
2, 2879, Note_on_c, 0, 43, 0
2, 2879, Note_on_c, 0, 55, 0
2, 2880, Note_on_c, 0, 55, 64
2, 2880, Note_on_c, 0, 43, 64
2, 3119, Note_on_c, 0, 55, 0
2, 3120, Note_on_c, 0, 55, 64
2, 3239, Note_on_c, 0, 55, 0
2, 3240, Note_on_c, 0, 55, 64
2, 3359, Note_on_c, 0, 43, 0
2, 3359, Note_on_c, 0, 55, 0
2, 3360, Note_on_c, 0, 54, 64
2, 3360, Note_on_c, 0, 39, 64
2, 3479, Note_on_c, 0, 54, 0
2, 3480, Note_on_c, 0, 54, 64
2, 3599, Note_on_c, 0, 54, 0
2, 3600, Note_on_c, 0, 54, 64
2, 3839, Note_on_c, 0, 39, 0
2, 3839, Note_on_c, 0, 54, 0
2, 3840, Note_on_c, 0, 55, 64
2, 3840, Note_on_c, 0, 43, 64
2, 4319, Note_on_c, 0, 55, 0
2, 4319, Note_on_c, 0, 43, 0
2, 4320, Note_on_c, 0, 55, 64
2, 4320, Note_on_c, 0, 43, 64
2, 4559, Note_on_c, 0, 55, 0
2, 4560, Note_on_c, 0, 55, 64
2, 4639, Note_on_c, 0, 55, 0
2, 4640, Note_on_c, 0, 55, 64
2, 4719, Note_on_c, 0, 55, 0
2, 4720, Note_on_c, 0, 55, 64
2, 4799, Note_on_c, 0, 43, 0
2, 4799, Note_on_c, 0, 55, 0
2, 4800, Note_on_c, 0, 55, 64
2, 4800, Note_on_c, 0, 43, 64
2, 5039, Note_on_c, 0, 55, 0
2, 5040, Note_on_c, 0, 55, 64
2, 5159, Note_on_c, 0, 55, 0
2, 5160, Note_on_c, 0, 55, 64
2, 5279, Note_on_c, 0, 43, 0
2, 5279, Note_on_c, 0, 55, 0
2, 5280, Note_on_c, 0, 54, 64
2, 5280, Note_on_c, 0, 39, 64
2, 5399, Note_on_c, 0, 54, 0
2, 5400, Note_on_c, 0, 54, 64
2, 5519, Note_on_c, 0, 54, 0
2, 5520, Note_on_c, 0, 54, 64
2, 5759, Note_on_c, 0, 39, 0
2, 5759, Note_on_c, 0, 54, 0
2, 5760, Note_on_c, 0, 55, 64
2, 5760, Note_on_c, 0, 43, 64
2, 6239, Note_on_c, 0, 55, 0
2, 6239, Note_on_c, 0, 43, 0
2, 6240, Note_on_c, 0, 55, 64
2, 6240, Note_on_c, 0, 43, 64
2, 6479, Note_on_c, 0, 55, 0
2, 6480, Note_on_c, 0, 55, 64
2, 6559, Note_on_c, 0, 55, 0
2, 6560, Note_on_c, 0, 55, 64
2, 6639, Note_on_c, 0, 55, 0
2, 6640, Note_on_c, 0, 55, 64
2, 6719, Note_on_c, 0, 43, 0
2, 6719, Note_on_c, 0, 55, 0
2, 6720, Note_on_c, 0, 55, 64
2, 6720, Note_on_c, 0, 43, 64
2, 6959, Note_on_c, 0, 55, 0
2, 6960, Note_on_c, 0, 55, 64
2, 7079, Note_on_c, 0, 55, 0
2, 7080, Note_on_c, 0, 55, 64
2, 7199, Note_on_c, 0, 43, 0
2, 7199, Note_on_c, 0, 55, 0
2, 7200, Note_on_c, 0, 54, 64
2, 7200, Note_on_c, 0, 39, 64
2, 7319, Note_on_c, 0, 54, 0
2, 7320, Note_on_c, 0, 54, 64
2, 7439, Note_on_c, 0, 54, 0
2, 7440, Note_on_c, 0, 54, 64
2, 7679, Note_on_c, 0, 39, 0
2, 7679, Note_on_c, 0, 54, 0
2, 7680, Note_on_c, 0, 43, 96
2, 7680, Note_on_c, 0, 50, 96
2, 7680, Note_on_c, 0, 55, 96
2, 8159, Note_on_c, 0, 43, 0
2, 8159, Note_on_c, 0, 50, 0
2, 8159, Note_on_c, 0, 55, 0
2, 8160, Note_on_c, 0, 43, 96
2, 8160, Note_on_c, 0, 50, 96
2, 8160, Note_on_c, 0, 55, 96
2, 8639, Note_on_c, 0, 43, 0
2, 8639, Note_on_c, 0, 50, 0
2, 8639, Note_on_c, 0, 55, 0
2, 8640, Note_on_c, 0, 43, 96
2, 8640, Note_on_c, 0, 50, 96
2, 8640, Note_on_c, 0, 55, 96
2, 9119, Note_on_c, 0, 43, 0
2, 9119, Note_on_c, 0, 50, 0
2, 9119, Note_on_c, 0, 55, 0
2, 9120, Note_on_c, 0, 42, 96
2, 9120, Note_on_c, 0, 51, 96
2, 9120, Note_on_c, 0, 54, 96
2, 9599, Note_on_c, 0, 42, 0
2, 9599, Note_on_c, 0, 51, 0
2, 9599, Note_on_c, 0, 54, 0
2, 9600, Note_on_c, 0, 43, 96
2, 9600, Note_on_c, 0, 50, 96
2, 9600, Note_on_c, 0, 55, 96
2, 10079, Note_on_c, 0, 43, 0
2, 10079, Note_on_c, 0, 50, 0
2, 10079, Note_on_c, 0, 55, 0
2, 10080, Note_on_c, 0, 42, 96
2, 10080, Note_on_c, 0, 51, 96
2, 10080, Note_on_c, 0, 54, 96
2, 10559, Note_on_c, 0, 42, 0
2, 10559, Note_on_c, 0, 51, 0
2, 10559, Note_on_c, 0, 54, 0
2, 10560, Note_on_c, 0, 43, 96
2, 10560, Note_on_c, 0, 50, 96
2, 10560, Note_on_c, 0, 55, 96
2, 10800, Note_on_c, 0, 55, 96
2, 10919, Note_on_c, 0, 55, 0
2, 10920, Note_on_c, 0, 55, 96
2, 11039, Note_on_c, 0, 55, 0
2, 11040, Note_on_c, 0, 55, 96
2, 11159, Note_on_c, 0, 55, 0
2, 11160, Note_on_c, 0, 55, 96
2, 11279, Note_on_c, 0, 55, 0
2, 11280, Note_on_c, 0, 55, 96
2, 11519, Note_on_c, 0, 43, 0
2, 11519, Note_on_c, 0, 50, 0
2, 11519, Note_on_c, 0, 55, 0
2, 11519, Note_on_c, 0, 55, 0
2, 11520, Note_on_c, 0, 43, 96
2, 11520, Note_on_c, 0, 50, 96
2, 11520, Note_on_c, 0, 55, 96
2, 11999, Note_on_c, 0, 43, 0
2, 11999, Note_on_c, 0, 50, 0
2, 11999, Note_on_c, 0, 55, 0
2, 12000, Note_on_c, 0, 43, 96
2, 12000, Note_on_c, 0, 50, 96
2, 12000, Note_on_c, 0, 55, 96
2, 12479, Note_on_c, 0, 43, 0
2, 12479, Note_on_c, 0, 50, 0
2, 12479, Note_on_c, 0, 55, 0
2, 12480, Note_on_c, 0, 43, 96
2, 12480, Note_on_c, 0, 50, 96
2, 12480, Note_on_c, 0, 55, 96
2, 12959, Note_on_c, 0, 43, 0
2, 12959, Note_on_c, 0, 50, 0
2, 12959, Note_on_c, 0, 55, 0
2, 12960, Note_on_c, 0, 42, 96
2, 12960, Note_on_c, 0, 51, 96
2, 12960, Note_on_c, 0, 54, 96
2, 13439, Note_on_c, 0, 42, 0
2, 13439, Note_on_c, 0, 51, 0
2, 13439, Note_on_c, 0, 54, 0
2, 13440, Note_on_c, 0, 39, 96
2, 13440, Note_on_c, 0, 46, 96
2, 13440, Note_on_c, 0, 51, 96
2, 13919, Note_on_c, 0, 39, 0
2, 13919, Note_on_c, 0, 46, 0
2, 13919, Note_on_c, 0, 51, 0
2, 13920, Note_on_c, 0, 36, 96
2, 13920, Note_on_c, 0, 43, 96
2, 13920, Note_on_c, 0, 48, 96
2, 14399, Note_on_c, 0, 36, 0
2, 14399, Note_on_c, 0, 43, 0
2, 14399, Note_on_c, 0, 48, 0
2, 14400, Note_on_c, 0, 43, 96
2, 14400, Note_on_c, 0, 50, 96
2, 14400, Note_on_c, 0, 55, 96
2, 14640, Note_on_c, 0, 55, 96
2, 14759, Note_on_c, 0, 55, 0
2, 14760, Note_on_c, 0, 55, 96
2, 14879, Note_on_c, 0, 55, 0
2, 14880, Note_on_c, 0, 55, 96
2, 14999, Note_on_c, 0, 55, 0
2, 15000, Note_on_c, 0, 55, 96
2, 15119, Note_on_c, 0, 55, 0
2, 15120, Note_on_c, 0, 55, 96
2, 15359, Note_on_c, 0, 43, 0
2, 15359, Note_on_c, 0, 50, 0
2, 15359, Note_on_c, 0, 55, 0
2, 15359, Note_on_c, 0, 55, 0
2, 15360, Note_on_c, 0, 43, 96
2, 15360, Note_on_c, 0, 50, 96
2, 15360, Note_on_c, 0, 55, 96
2, 15839, Note_on_c, 0, 43, 0
2, 15839, Note_on_c, 0, 50, 0
2, 15839, Note_on_c, 0, 55, 0
2, 15840, Note_on_c, 0, 43, 96
2, 15840, Note_on_c, 0, 50, 96
2, 15840, Note_on_c, 0, 55, 96
2, 16319, Note_on_c, 0, 43, 0
2, 16319, Note_on_c, 0, 50, 0
2, 16319, Note_on_c, 0, 55, 0
2, 16320, Note_on_c, 0, 43, 96
2, 16320, Note_on_c, 0, 50, 96
2, 16320, Note_on_c, 0, 55, 96
2, 16799, Note_on_c, 0, 43, 0
2, 16799, Note_on_c, 0, 50, 0
2, 16799, Note_on_c, 0, 55, 0
2, 16800, Note_on_c, 0, 43, 96
2, 16800, Note_on_c, 0, 50, 96
2, 16800, Note_on_c, 0, 55, 96
2, 17279, Note_on_c, 0, 43, 0
2, 17279, Note_on_c, 0, 50, 0
2, 17279, Note_on_c, 0, 55, 0
2, 17280, Note_on_c, 0, 37, 96
2, 17280, Note_on_c, 0, 44, 96
2, 17280, Note_on_c, 0, 49, 96
2, 17759, Note_on_c, 0, 37, 0
2, 17759, Note_on_c, 0, 44, 0
2, 17759, Note_on_c, 0, 49, 0
2, 17760, Note_on_c, 0, 37, 96
2, 17760, Note_on_c, 0, 44, 96
2, 17760, Note_on_c, 0, 49, 96
2, 18239, Note_on_c, 0, 37, 0
2, 18239, Note_on_c, 0, 44, 0
2, 18239, Note_on_c, 0, 49, 0
2, 18240, Note_on_c, 0, 37, 96
2, 18240, Note_on_c, 0, 44, 96
2, 18240, Note_on_c, 0, 49, 96
2, 18719, Note_on_c, 0, 37, 0
2, 18719, Note_on_c, 0, 44, 0
2, 18719, Note_on_c, 0, 49, 0
2, 18720, Note_on_c, 0, 37, 96
2, 18720, Note_on_c, 0, 44, 96
2, 18720, Note_on_c, 0, 49, 96
2, 19199, Note_on_c, 0, 37, 0
2, 19199, Note_on_c, 0, 44, 0
2, 19199, Note_on_c, 0, 49, 0
2, 19200, Note_on_c, 0, 39, 96
2, 19200, Note_on_c, 0, 46, 96
2, 19200, Note_on_c, 0, 51, 96
2, 19679, Note_on_c, 0, 39, 0
2, 19679, Note_on_c, 0, 46, 0
2, 19679, Note_on_c, 0, 51, 0
2, 19680, Note_on_c, 0, 39, 96
2, 19680, Note_on_c, 0, 46, 96
2, 19680, Note_on_c, 0, 51, 96
2, 20159, Note_on_c, 0, 39, 0
2, 20159, Note_on_c, 0, 46, 0
2, 20159, Note_on_c, 0, 51, 0
2, 20160, Note_on_c, 0, 36, 96
2, 20160, Note_on_c, 0, 43, 96
2, 20160, Note_on_c, 0, 48, 96
2, 20639, Note_on_c, 0, 36, 0
2, 20639, Note_on_c, 0, 43, 0
2, 20639, Note_on_c, 0, 48, 0
2, 20640, Note_on_c, 0, 39, 96
2, 20640, Note_on_c, 0, 46, 96
2, 20640, Note_on_c, 0, 51, 96
2, 21119, Note_on_c, 0, 39, 0
2, 21119, Note_on_c, 0, 46, 0
2, 21119, Note_on_c, 0, 51, 0
2, 21120, Note_on_c, 0, 43, 96
2, 21120, Note_on_c, 0, 50, 96
2, 21120, Note_on_c, 0, 55, 96
2, 21599, Note_on_c, 0, 43, 0
2, 21599, Note_on_c, 0, 50, 0
2, 21599, Note_on_c, 0, 55, 0
2, 21600, Note_on_c, 0, 39, 96
2, 21600, Note_on_c, 0, 46, 96
2, 21600, Note_on_c, 0, 51, 96
2, 22079, Note_on_c, 0, 39, 0
2, 22079, Note_on_c, 0, 46, 0
2, 22079, Note_on_c, 0, 51, 0
2, 22080, Note_on_c, 0, 43, 96
2, 22080, Note_on_c, 0, 50, 96
2, 22080, Note_on_c, 0, 55, 96
2, 22559, Note_on_c, 0, 43, 0
2, 22559, Note_on_c, 0, 50, 0
2, 22559, Note_on_c, 0, 55, 0
2, 22560, Note_on_c, 0, 43, 96
2, 22560, Note_on_c, 0, 50, 96
2, 22560, Note_on_c, 0, 55, 96
2, 23039, Note_on_c, 0, 43, 0
2, 23039, Note_on_c, 0, 50, 0
2, 23039, Note_on_c, 0, 55, 0
2, 23040, Note_on_c, 0, 39, 96
2, 23040, Note_on_c, 0, 46, 96
2, 23040, Note_on_c, 0, 51, 96
2, 23519, Note_on_c, 0, 39, 0
2, 23519, Note_on_c, 0, 46, 0
2, 23519, Note_on_c, 0, 51, 0
2, 23520, Note_on_c, 0, 39, 96
2, 23520, Note_on_c, 0, 46, 96
2, 23520, Note_on_c, 0, 51, 96
2, 23999, Note_on_c, 0, 39, 0
2, 23999, Note_on_c, 0, 46, 0
2, 23999, Note_on_c, 0, 51, 0
2, 24000, Note_on_c, 0, 43, 96
2, 24000, Note_on_c, 0, 50, 96
2, 24000, Note_on_c, 0, 55, 96
2, 24479, Note_on_c, 0, 43, 0
2, 24479, Note_on_c, 0, 50, 0
2, 24479, Note_on_c, 0, 55, 0
2, 24480, Note_on_c, 0, 43, 96
2, 24480, Note_on_c, 0, 50, 96
2, 24480, Note_on_c, 0, 55, 96
2, 24959, Note_on_c, 0, 43, 0
2, 24959, Note_on_c, 0, 50, 0
2, 24959, Note_on_c, 0, 55, 0
2, 24960, Note_on_c, 0, 37, 96
2, 24960, Note_on_c, 0, 44, 96
2, 24960, Note_on_c, 0, 49, 96
2, 25439, Note_on_c, 0, 37, 0
2, 25439, Note_on_c, 0, 44, 0
2, 25439, Note_on_c, 0, 49, 0
2, 25440, Note_on_c, 0, 37, 96
2, 25440, Note_on_c, 0, 44, 96
2, 25440, Note_on_c, 0, 49, 96
2, 25919, Note_on_c, 0, 37, 0
2, 25919, Note_on_c, 0, 44, 0
2, 25919, Note_on_c, 0, 49, 0
2, 25920, Note_on_c, 0, 37, 96
2, 25920, Note_on_c, 0, 44, 96
2, 25920, Note_on_c, 0, 49, 96
2, 26399, Note_on_c, 0, 37, 0
2, 26399, Note_on_c, 0, 44, 0
2, 26399, Note_on_c, 0, 49, 0
2, 26400, Note_on_c, 0, 37, 96
2, 26400, Note_on_c, 0, 44, 96
2, 26400, Note_on_c, 0, 49, 96
2, 26879, Note_on_c, 0, 37, 0
2, 26879, Note_on_c, 0, 44, 0
2, 26879, Note_on_c, 0, 49, 0
2, 26880, Note_on_c, 0, 39, 96
2, 26880, Note_on_c, 0, 46, 96
2, 26880, Note_on_c, 0, 51, 96
2, 27359, Note_on_c, 0, 39, 0
2, 27359, Note_on_c, 0, 46, 0
2, 27359, Note_on_c, 0, 51, 0
2, 27360, Note_on_c, 0, 39, 96
2, 27360, Note_on_c, 0, 46, 96
2, 27360, Note_on_c, 0, 51, 96
2, 27839, Note_on_c, 0, 39, 0
2, 27839, Note_on_c, 0, 46, 0
2, 27839, Note_on_c, 0, 51, 0
2, 27840, Note_on_c, 0, 39, 96
2, 27840, Note_on_c, 0, 46, 96
2, 27840, Note_on_c, 0, 51, 96
2, 28319, Note_on_c, 0, 39, 0
2, 28319, Note_on_c, 0, 46, 0
2, 28319, Note_on_c, 0, 51, 0
2, 28320, Note_on_c, 0, 36, 96
2, 28320, Note_on_c, 0, 43, 96
2, 28320, Note_on_c, 0, 48, 96
2, 28799, Note_on_c, 0, 36, 0
2, 28799, Note_on_c, 0, 43, 0
2, 28799, Note_on_c, 0, 48, 0
2, 28800, Note_on_c, 0, 43, 96
2, 28800, Note_on_c, 0, 50, 96
2, 28800, Note_on_c, 0, 55, 96
2, 29279, Note_on_c, 0, 43, 0
2, 29279, Note_on_c, 0, 50, 0
2, 29279, Note_on_c, 0, 55, 0
2, 29280, Note_on_c, 0, 42, 96
2, 29280, Note_on_c, 0, 46, 96
2, 29280, Note_on_c, 0, 51, 96
2, 29280, Note_on_c, 0, 54, 96
2, 29759, Note_on_c, 0, 42, 0
2, 29759, Note_on_c, 0, 46, 0
2, 29759, Note_on_c, 0, 51, 0
2, 29759, Note_on_c, 0, 54, 0
2, 29760, Note_on_c, 0, 43, 96
2, 29760, Note_on_c, 0, 50, 96
2, 29760, Note_on_c, 0, 55, 96
2, 30239, Note_on_c, 0, 43, 0
2, 30239, Note_on_c, 0, 50, 0
2, 30239, Note_on_c, 0, 55, 0
2, 30240, Note_on_c, 0, 43, 96
2, 30240, Note_on_c, 0, 50, 96
2, 30240, Note_on_c, 0, 55, 96
2, 30719, Note_on_c, 0, 43, 0
2, 30719, Note_on_c, 0, 50, 0
2, 30719, Note_on_c, 0, 55, 0
2, 30720, Note_on_c, 0, 55, 80
2, 30720, Note_on_c, 0, 43, 80
2, 31199, Note_on_c, 0, 55, 0
2, 31199, Note_on_c, 0, 43, 0
2, 31200, Note_on_c, 0, 55, 80
2, 31200, Note_on_c, 0, 43, 80
2, 31439, Note_on_c, 0, 55, 0
2, 31440, Note_on_c, 0, 55, 80
2, 31519, Note_on_c, 0, 55, 0
2, 31520, Note_on_c, 0, 55, 80
2, 31599, Note_on_c, 0, 55, 0
2, 31600, Note_on_c, 0, 55, 80
2, 31679, Note_on_c, 0, 43, 0
2, 31679, Note_on_c, 0, 55, 0
2, 31680, Note_on_c, 0, 55, 80
2, 31680, Note_on_c, 0, 43, 80
2, 31919, Note_on_c, 0, 55, 0
2, 31920, Note_on_c, 0, 55, 80
2, 32039, Note_on_c, 0, 55, 0
2, 32040, Note_on_c, 0, 55, 80
2, 32159, Note_on_c, 0, 43, 0
2, 32159, Note_on_c, 0, 55, 0
2, 32160, Note_on_c, 0, 54, 80
2, 32160, Note_on_c, 0, 39, 80
2, 32279, Note_on_c, 0, 54, 0
2, 32280, Note_on_c, 0, 54, 80
2, 32399, Note_on_c, 0, 54, 0
2, 32400, Note_on_c, 0, 54, 80
2, 32639, Note_on_c, 0, 39, 0
2, 32639, Note_on_c, 0, 54, 0
2, 32640, Note_on_c, 0, 55, 80
2, 32640, Note_on_c, 0, 43, 80
2, 33119, Note_on_c, 0, 55, 0
2, 33119, Note_on_c, 0, 43, 0
2, 33120, Note_on_c, 0, 55, 80
2, 33120, Note_on_c, 0, 43, 80
2, 33359, Note_on_c, 0, 55, 0
2, 33360, Note_on_c, 0, 55, 80
2, 33439, Note_on_c, 0, 55, 0
2, 33440, Note_on_c, 0, 55, 80
2, 33519, Note_on_c, 0, 55, 0
2, 33520, Note_on_c, 0, 55, 80
2, 33599, Note_on_c, 0, 43, 0
2, 33599, Note_on_c, 0, 55, 0
2, 33600, Note_on_c, 0, 55, 80
2, 33600, Note_on_c, 0, 43, 80
2, 33839, Note_on_c, 0, 55, 0
2, 33840, Note_on_c, 0, 55, 80
2, 33959, Note_on_c, 0, 55, 0
2, 33960, Note_on_c, 0, 55, 80
2, 34079, Note_on_c, 0, 43, 0
2, 34079, Note_on_c, 0, 55, 0
2, 34080, Note_on_c, 0, 54, 80
2, 34080, Note_on_c, 0, 39, 80
2, 34199, Note_on_c, 0, 54, 0
2, 34200, Note_on_c, 0, 54, 80
2, 34319, Note_on_c, 0, 54, 0
2, 34320, Note_on_c, 0, 54, 80
2, 34559, Note_on_c, 0, 39, 0
2, 34559, Note_on_c, 0, 54, 0
2, 34560, Note_on_c, 0, 43, 80
2, 34560, Note_on_c, 0, 50, 80
2, 35039, Note_on_c, 0, 43, 0
2, 35039, Note_on_c, 0, 50, 0
2, 35040, Note_on_c, 0, 43, 80
2, 35040, Note_on_c, 0, 50, 80
2, 35519, Note_on_c, 0, 43, 0
2, 35519, Note_on_c, 0, 50, 0
2, 35520, Note_on_c, 0, 43, 80
2, 35520, Note_on_c, 0, 50, 80
2, 35999, Note_on_c, 0, 43, 0
2, 35999, Note_on_c, 0, 50, 0
2, 36000, Note_on_c, 0, 39, 96
2, 36000, Note_on_c, 0, 46, 96
2, 36479, Note_on_c, 0, 39, 0
2, 36479, Note_on_c, 0, 46, 0
2, 36480, Note_on_c, 0, 43, 96
2, 36480, Note_on_c, 0, 50, 96
2, 36480, Note_on_c, 0, 55, 96
2, 36959, Note_on_c, 0, 43, 0
2, 36959, Note_on_c, 0, 50, 0
2, 36959, Note_on_c, 0, 55, 0
2, 36960, Note_on_c, 0, 43, 100
2, 36960, Note_on_c, 0, 50, 100
2, 36960, Note_on_c, 0, 57, 100
2, 37439, Note_on_c, 0, 43, 0
2, 37439, Note_on_c, 0, 50, 0
2, 37439, Note_on_c, 0, 57, 0
2, 37440, Note_on_c, 0, 43, 105
2, 37440, Note_on_c, 0, 50, 105
2, 37440, Note_on_c, 0, 58, 105
2, 37919, Note_on_c, 0, 43, 0
2, 37919, Note_on_c, 0, 50, 0
2, 37919, Note_on_c, 0, 58, 0
2, 37920, Note_on_c, 0, 43, 109
2, 37920, Note_on_c, 0, 50, 109
2, 37920, Note_on_c, 0, 54, 109
2, 38399, Note_on_c, 0, 43, 0
2, 38399, Note_on_c, 0, 50, 0
2, 38399, Note_on_c, 0, 54, 0
2, 38400, Note_on_c, 0, 55, 33
2, 38639, Note_on_c, 0, 55, 0
2, 39360, Note_on_c, 0, 55, 33
2, 39599, Note_on_c, 0, 55, 0
2, 40320, Note_on_c, 0, 55, 33
2, 40559, Note_on_c, 0, 55, 0
2, 41280, Note_on_c, 0, 55, 33
2, 41519, Note_on_c, 0, 55, 0
2, 41760, Note_on_c, 0, 55, 33
2, 41999, Note_on_c, 0, 55, 0
2, 42240, Note_on_c, 0, 55, 33
2, 42479, Note_on_c, 0, 55, 0
2, 43200, Note_on_c, 0, 55, 33
2, 43439, Note_on_c, 0, 55, 0
2, 44160, Note_on_c, 0, 55, 33
2, 44399, Note_on_c, 0, 55, 0
2, 45120, Note_on_c, 0, 55, 33
2, 45359, Note_on_c, 0, 55, 0
2, 46080, Note_on_c, 0, 43, 49
2, 46319, Note_on_c, 0, 43, 0
2, 46320, Note_on_c, 0, 50, 49
2, 46559, Note_on_c, 0, 50, 0
2, 46560, Note_on_c, 0, 51, 49
2, 46799, Note_on_c, 0, 51, 0
2, 46800, Note_on_c, 0, 48, 49
2, 47039, Note_on_c, 0, 48, 0
2, 47040, Note_on_c, 0, 43, 49
2, 47279, Note_on_c, 0, 43, 0
2, 48000, Note_on_c, 0, 43, 49
2, 48239, Note_on_c, 0, 43, 0
2, 48960, Note_on_c, 0, 43, 49
2, 49199, Note_on_c, 0, 43, 0
2, 49440, Note_on_c, 0, 43, 59
2, 49679, Note_on_c, 0, 43, 0
2, 49920, Note_on_c, 0, 44, 64
2, 50159, Note_on_c, 0, 44, 0
2, 50880, Note_on_c, 0, 44, 64
2, 51119, Note_on_c, 0, 44, 0
2, 51840, Note_on_c, 0, 44, 64
2, 52079, Note_on_c, 0, 44, 0
2, 52800, Note_on_c, 0, 33, 64
2, 52800, Note_on_c, 0, 45, 64
2, 53039, Note_on_c, 0, 33, 0
2, 53039, Note_on_c, 0, 45, 0
2, 53760, Note_on_c, 0, 45, 80
2, 53760, Note_on_c, 0, 57, 80
2, 54239, Note_on_c, 0, 45, 0
2, 54239, Note_on_c, 0, 57, 0
2, 54240, Note_on_c, 0, 45, 80
2, 54240, Note_on_c, 0, 57, 80
2, 54719, Note_on_c, 0, 45, 0
2, 54719, Note_on_c, 0, 57, 0
2, 54720, Note_on_c, 0, 45, 80
2, 54720, Note_on_c, 0, 57, 80
2, 55199, Note_on_c, 0, 45, 0
2, 55199, Note_on_c, 0, 57, 0
2, 55200, Note_on_c, 0, 41, 80
2, 55200, Note_on_c, 0, 53, 80
2, 55559, Note_on_c, 0, 41, 0
2, 55559, Note_on_c, 0, 53, 0
2, 55560, Note_on_c, 0, 48, 80
2, 55560, Note_on_c, 0, 60, 80
2, 55679, Note_on_c, 0, 48, 0
2, 55679, Note_on_c, 0, 60, 0
2, 55680, Note_on_c, 0, 45, 80
2, 55680, Note_on_c, 0, 57, 80
2, 56159, Note_on_c, 0, 45, 0
2, 56159, Note_on_c, 0, 57, 0
2, 56160, Note_on_c, 0, 41, 80
2, 56160, Note_on_c, 0, 53, 80
2, 56519, Note_on_c, 0, 41, 0
2, 56519, Note_on_c, 0, 53, 0
2, 56520, Note_on_c, 0, 48, 80
2, 56520, Note_on_c, 0, 60, 80
2, 56639, Note_on_c, 0, 48, 0
2, 56639, Note_on_c, 0, 60, 0
2, 56640, Note_on_c, 0, 45, 80
2, 56640, Note_on_c, 0, 57, 80
2, 60479, Note_on_c, 0, 45, 0
2, 60479, Note_on_c, 0, 57, 0
2, 60480, Note_on_c, 0, 52, 80
2, 60480, Note_on_c, 0, 64, 80
2, 60959, Note_on_c, 0, 52, 0
2, 60959, Note_on_c, 0, 64, 0
2, 60960, Note_on_c, 0, 52, 80
2, 60960, Note_on_c, 0, 64, 80
2, 61439, Note_on_c, 0, 52, 0
2, 61439, Note_on_c, 0, 64, 0
2, 61440, Note_on_c, 0, 64, 80
2, 61440, Note_on_c, 0, 48, 80
2, 61919, Note_on_c, 0, 64, 0
2, 61919, Note_on_c, 0, 48, 0
2, 61920, Note_on_c, 0, 65, 80
2, 61920, Note_on_c, 0, 44, 80
2, 62279, Note_on_c, 0, 65, 0
2, 62280, Note_on_c, 0, 60, 80
2, 62399, Note_on_c, 0, 44, 0
2, 62399, Note_on_c, 0, 60, 0
2, 62400, Note_on_c, 0, 56, 80
2, 62400, Note_on_c, 0, 41, 80
2, 62879, Note_on_c, 0, 56, 0
2, 62879, Note_on_c, 0, 41, 0
2, 62880, Note_on_c, 0, 53, 80
2, 62880, Note_on_c, 0, 38, 80
2, 63239, Note_on_c, 0, 53, 0
2, 63240, Note_on_c, 0, 60, 80
2, 63359, Note_on_c, 0, 38, 0
2, 63359, Note_on_c, 0, 60, 0
2, 63360, Note_on_c, 0, 45, 80
2, 63360, Note_on_c, 0, 57, 80
2, 67199, Note_on_c, 0, 45, 0
2, 67199, Note_on_c, 0, 57, 0
2, 67200, Note_on_c, 0, 58, 80
2, 67200, Note_on_c, 0, 70, 80
2, 67679, Note_on_c, 0, 58, 0
2, 67679, Note_on_c, 0, 70, 0
2, 67680, Note_on_c, 0, 46, 80
2, 67680, Note_on_c, 0, 58, 80
2, 68039, Note_on_c, 0, 46, 0
2, 68039, Note_on_c, 0, 58, 0
2, 68040, Note_on_c, 0, 46, 80
2, 68040, Note_on_c, 0, 58, 80
2, 68159, Note_on_c, 0, 46, 0
2, 68159, Note_on_c, 0, 58, 0
2, 68160, Note_on_c, 0, 58, 80
2, 68160, Note_on_c, 0, 70, 80
2, 68639, Note_on_c, 0, 58, 0
2, 68639, Note_on_c, 0, 70, 0
2, 68640, Note_on_c, 0, 57, 80
2, 68640, Note_on_c, 0, 69, 80
2, 68999, Note_on_c, 0, 57, 0
2, 68999, Note_on_c, 0, 69, 0
2, 69000, Note_on_c, 0, 56, 80
2, 69000, Note_on_c, 0, 68, 80
2, 69119, Note_on_c, 0, 56, 0
2, 69119, Note_on_c, 0, 68, 0
2, 69120, Note_on_c, 0, 55, 80
2, 69120, Note_on_c, 0, 67, 80
2, 69239, Note_on_c, 0, 55, 0
2, 69239, Note_on_c, 0, 67, 0
2, 69240, Note_on_c, 0, 54, 80
2, 69240, Note_on_c, 0, 66, 80
2, 69359, Note_on_c, 0, 54, 0
2, 69359, Note_on_c, 0, 66, 0
2, 69360, Note_on_c, 0, 55, 80
2, 69360, Note_on_c, 0, 67, 80
2, 69479, Note_on_c, 0, 55, 0
2, 69479, Note_on_c, 0, 67, 0
2, 69840, Note_on_c, 0, 47, 80
2, 69840, Note_on_c, 0, 59, 80
2, 70079, Note_on_c, 0, 47, 0
2, 70079, Note_on_c, 0, 59, 0
2, 70080, Note_on_c, 0, 52, 80
2, 70080, Note_on_c, 0, 64, 80
2, 71759, Note_on_c, 0, 52, 0
2, 71759, Note_on_c, 0, 64, 0
2, 72480, Note_on_c, 0, 51, 80
2, 72480, Note_on_c, 0, 63, 80
2, 72839, Note_on_c, 0, 51, 0
2, 72839, Note_on_c, 0, 63, 0
2, 72840, Note_on_c, 0, 50, 80
2, 72840, Note_on_c, 0, 62, 80
2, 72959, Note_on_c, 0, 50, 0
2, 72959, Note_on_c, 0, 62, 0
2, 72960, Note_on_c, 0, 49, 80
2, 72960, Note_on_c, 0, 61, 80
2, 73079, Note_on_c, 0, 49, 0
2, 73079, Note_on_c, 0, 61, 0
2, 73080, Note_on_c, 0, 48, 80
2, 73080, Note_on_c, 0, 60, 80
2, 73199, Note_on_c, 0, 48, 0
2, 73199, Note_on_c, 0, 60, 0
2, 73200, Note_on_c, 0, 49, 80
2, 73200, Note_on_c, 0, 61, 80
2, 73319, Note_on_c, 0, 49, 0
2, 73319, Note_on_c, 0, 61, 0
2, 73680, Note_on_c, 0, 42, 80
2, 73680, Note_on_c, 0, 54, 80
2, 73919, Note_on_c, 0, 42, 0
2, 73919, Note_on_c, 0, 54, 0
2, 73920, Note_on_c, 0, 45, 80
2, 73920, Note_on_c, 0, 57, 80
2, 75839, Note_on_c, 0, 45, 0
2, 75839, Note_on_c, 0, 57, 0
2, 75840, Note_on_c, 0, 42, 80
2, 75840, Note_on_c, 0, 54, 80
2, 76319, Note_on_c, 0, 42, 0
2, 76319, Note_on_c, 0, 54, 0
2, 76320, Note_on_c, 0, 49, 80
2, 76320, Note_on_c, 0, 61, 80
2, 76799, Note_on_c, 0, 49, 0
2, 76799, Note_on_c, 0, 61, 0
2, 76800, Note_on_c, 0, 46, 80
2, 76800, Note_on_c, 0, 58, 80
2, 77279, Note_on_c, 0, 46, 0
2, 77279, Note_on_c, 0, 58, 0
2, 77280, Note_on_c, 0, 42, 80
2, 77280, Note_on_c, 0, 54, 80
2, 77639, Note_on_c, 0, 42, 0
2, 77639, Note_on_c, 0, 54, 0
2, 77640, Note_on_c, 0, 49, 80
2, 77640, Note_on_c, 0, 61, 80
2, 77759, Note_on_c, 0, 49, 0
2, 77759, Note_on_c, 0, 61, 0
2, 77760, Note_on_c, 0, 46, 80
2, 77760, Note_on_c, 0, 58, 80
2, 78719, Note_on_c, 0, 46, 0
2, 78719, Note_on_c, 0, 58, 0
2, 78720, Note_on_c, 0, 46, 80
2, 78720, Note_on_c, 0, 58, 80
2, 79679, Note_on_c, 0, 46, 0
2, 79679, Note_on_c, 0, 58, 0
2, 79680, Note_on_c, 0, 46, 80
2, 79680, Note_on_c, 0, 58, 80
2, 80159, Note_on_c, 0, 46, 0
2, 80159, Note_on_c, 0, 58, 0
2, 80160, Note_on_c, 0, 46, 80
2, 80160, Note_on_c, 0, 58, 80
2, 80279, Note_on_c, 0, 46, 0
2, 80279, Note_on_c, 0, 58, 0
2, 80280, Note_on_c, 0, 46, 80
2, 80280, Note_on_c, 0, 58, 80
2, 80399, Note_on_c, 0, 46, 0
2, 80399, Note_on_c, 0, 58, 0
2, 80400, Note_on_c, 0, 46, 80
2, 80400, Note_on_c, 0, 58, 80
2, 80519, Note_on_c, 0, 46, 0
2, 80519, Note_on_c, 0, 58, 0
2, 80640, Note_on_c, 0, 59, 80
2, 80640, Note_on_c, 0, 47, 80
2, 81119, Note_on_c, 0, 59, 0
2, 81119, Note_on_c, 0, 47, 0
2, 81120, Note_on_c, 0, 59, 80
2, 81120, Note_on_c, 0, 47, 80
2, 81359, Note_on_c, 0, 59, 0
2, 81360, Note_on_c, 0, 59, 80
2, 81439, Note_on_c, 0, 59, 0
2, 81440, Note_on_c, 0, 59, 80
2, 81519, Note_on_c, 0, 59, 0
2, 81520, Note_on_c, 0, 59, 80
2, 81599, Note_on_c, 0, 47, 0
2, 81599, Note_on_c, 0, 59, 0
2, 81600, Note_on_c, 0, 59, 80
2, 81600, Note_on_c, 0, 47, 80
2, 81839, Note_on_c, 0, 59, 0
2, 81840, Note_on_c, 0, 59, 80
2, 81959, Note_on_c, 0, 59, 0
2, 81960, Note_on_c, 0, 59, 80
2, 82079, Note_on_c, 0, 47, 0
2, 82079, Note_on_c, 0, 59, 0
2, 82080, Note_on_c, 0, 58, 80
2, 82080, Note_on_c, 0, 46, 80
2, 82199, Note_on_c, 0, 58, 0
2, 82200, Note_on_c, 0, 58, 80
2, 82319, Note_on_c, 0, 58, 0
2, 82320, Note_on_c, 0, 58, 80
2, 82559, Note_on_c, 0, 46, 0
2, 82559, Note_on_c, 0, 58, 0
2, 82560, Note_on_c, 0, 59, 80
2, 82560, Note_on_c, 0, 47, 80
2, 83039, Note_on_c, 0, 59, 0
2, 83039, Note_on_c, 0, 47, 0
2, 83040, Note_on_c, 0, 59, 80
2, 83040, Note_on_c, 0, 47, 80
2, 83279, Note_on_c, 0, 59, 0
2, 83280, Note_on_c, 0, 59, 80
2, 83359, Note_on_c, 0, 59, 0
2, 83360, Note_on_c, 0, 59, 80
2, 83439, Note_on_c, 0, 59, 0
2, 83440, Note_on_c, 0, 59, 80
2, 83519, Note_on_c, 0, 47, 0
2, 83519, Note_on_c, 0, 59, 0
2, 83520, Note_on_c, 0, 59, 80
2, 83520, Note_on_c, 0, 47, 80
2, 83759, Note_on_c, 0, 59, 0
2, 83760, Note_on_c, 0, 59, 80
2, 83879, Note_on_c, 0, 59, 0
2, 83880, Note_on_c, 0, 59, 80
2, 83999, Note_on_c, 0, 47, 0
2, 83999, Note_on_c, 0, 59, 0
2, 84000, Note_on_c, 0, 58, 80
2, 84000, Note_on_c, 0, 46, 80
2, 84119, Note_on_c, 0, 58, 0
2, 84120, Note_on_c, 0, 58, 80
2, 84239, Note_on_c, 0, 58, 0
2, 84240, Note_on_c, 0, 58, 80
2, 84479, Note_on_c, 0, 46, 0
2, 84479, Note_on_c, 0, 58, 0
2, 84480, Note_on_c, 0, 60, 80
2, 84480, Note_on_c, 0, 48, 80
2, 84959, Note_on_c, 0, 60, 0
2, 84959, Note_on_c, 0, 48, 0
2, 84960, Note_on_c, 0, 60, 80
2, 84960, Note_on_c, 0, 48, 80
2, 85199, Note_on_c, 0, 60, 0
2, 85200, Note_on_c, 0, 60, 80
2, 85279, Note_on_c, 0, 60, 0
2, 85280, Note_on_c, 0, 60, 80
2, 85359, Note_on_c, 0, 60, 0
2, 85360, Note_on_c, 0, 60, 80
2, 85439, Note_on_c, 0, 48, 0
2, 85439, Note_on_c, 0, 60, 0
2, 85440, Note_on_c, 0, 60, 80
2, 85440, Note_on_c, 0, 48, 80
2, 85679, Note_on_c, 0, 60, 0
2, 85680, Note_on_c, 0, 60, 80
2, 85799, Note_on_c, 0, 60, 0
2, 85800, Note_on_c, 0, 60, 80
2, 85919, Note_on_c, 0, 48, 0
2, 85919, Note_on_c, 0, 60, 0
2, 85920, Note_on_c, 0, 59, 80
2, 85920, Note_on_c, 0, 47, 80
2, 85920, Note_on_c, 0, 56, 80
2, 86039, Note_on_c, 0, 59, 0
2, 86040, Note_on_c, 0, 59, 80
2, 86159, Note_on_c, 0, 59, 0
2, 86160, Note_on_c, 0, 59, 80
2, 86399, Note_on_c, 0, 47, 0
2, 86399, Note_on_c, 0, 56, 0
2, 86399, Note_on_c, 0, 59, 0
2, 86400, Note_on_c, 0, 60, 80
2, 86400, Note_on_c, 0, 48, 80
2, 86879, Note_on_c, 0, 60, 0
2, 86879, Note_on_c, 0, 48, 0
2, 86880, Note_on_c, 0, 60, 80
2, 86880, Note_on_c, 0, 48, 80
2, 87119, Note_on_c, 0, 60, 0
2, 87120, Note_on_c, 0, 60, 80
2, 87199, Note_on_c, 0, 60, 0
2, 87200, Note_on_c, 0, 60, 80
2, 87279, Note_on_c, 0, 60, 0
2, 87280, Note_on_c, 0, 60, 80
2, 87359, Note_on_c, 0, 48, 0
2, 87359, Note_on_c, 0, 60, 0
2, 87360, Note_on_c, 0, 60, 80
2, 87360, Note_on_c, 0, 48, 80
2, 87599, Note_on_c, 0, 60, 0
2, 87600, Note_on_c, 0, 60, 80
2, 87719, Note_on_c, 0, 60, 0
2, 87720, Note_on_c, 0, 60, 80
2, 87839, Note_on_c, 0, 48, 0
2, 87839, Note_on_c, 0, 60, 0
2, 87840, Note_on_c, 0, 59, 80
2, 87840, Note_on_c, 0, 47, 80
2, 87840, Note_on_c, 0, 56, 80
2, 87959, Note_on_c, 0, 59, 0
2, 87960, Note_on_c, 0, 59, 80
2, 88079, Note_on_c, 0, 59, 0
2, 88080, Note_on_c, 0, 59, 80
2, 88319, Note_on_c, 0, 47, 0
2, 88319, Note_on_c, 0, 56, 0
2, 88319, Note_on_c, 0, 59, 0
2, 88320, Note_on_c, 0, 43, 80
2, 88320, Note_on_c, 0, 50, 80
2, 88320, Note_on_c, 0, 55, 80
2, 88799, Note_on_c, 0, 43, 0
2, 88799, Note_on_c, 0, 50, 0
2, 88799, Note_on_c, 0, 55, 0
2, 88800, Note_on_c, 0, 43, 80
2, 88800, Note_on_c, 0, 50, 80
2, 88800, Note_on_c, 0, 55, 80
2, 89279, Note_on_c, 0, 43, 0
2, 89279, Note_on_c, 0, 50, 0
2, 89279, Note_on_c, 0, 55, 0
2, 89280, Note_on_c, 0, 43, 80
2, 89280, Note_on_c, 0, 50, 80
2, 89280, Note_on_c, 0, 55, 80
2, 89759, Note_on_c, 0, 43, 0
2, 89759, Note_on_c, 0, 50, 0
2, 89759, Note_on_c, 0, 55, 0
2, 89760, Note_on_c, 0, 42, 80
2, 89760, Note_on_c, 0, 51, 80
2, 89760, Note_on_c, 0, 54, 80
2, 90239, Note_on_c, 0, 42, 0
2, 90239, Note_on_c, 0, 51, 0
2, 90239, Note_on_c, 0, 54, 0
2, 90240, Note_on_c, 0, 43, 80
2, 90240, Note_on_c, 0, 50, 80
2, 90240, Note_on_c, 0, 55, 80
2, 90719, Note_on_c, 0, 43, 0
2, 90719, Note_on_c, 0, 50, 0
2, 90719, Note_on_c, 0, 55, 0
2, 90720, Note_on_c, 0, 42, 80
2, 90720, Note_on_c, 0, 51, 80
2, 90720, Note_on_c, 0, 54, 80
2, 91199, Note_on_c, 0, 42, 0
2, 91199, Note_on_c, 0, 51, 0
2, 91199, Note_on_c, 0, 54, 0
2, 91200, Note_on_c, 0, 43, 80
2, 91200, Note_on_c, 0, 50, 80
2, 91200, Note_on_c, 0, 55, 80
2, 91440, Note_on_c, 0, 55, 80
2, 91559, Note_on_c, 0, 55, 0
2, 91560, Note_on_c, 0, 55, 80
2, 91679, Note_on_c, 0, 55, 0
2, 91680, Note_on_c, 0, 55, 80
2, 91799, Note_on_c, 0, 55, 0
2, 91800, Note_on_c, 0, 55, 80
2, 91919, Note_on_c, 0, 55, 0
2, 91920, Note_on_c, 0, 55, 80
2, 92159, Note_on_c, 0, 43, 0
2, 92159, Note_on_c, 0, 50, 0
2, 92159, Note_on_c, 0, 55, 0
2, 92159, Note_on_c, 0, 55, 0
2, 92160, Note_on_c, 0, 43, 80
2, 92160, Note_on_c, 0, 50, 80
2, 92160, Note_on_c, 0, 55, 80
2, 92639, Note_on_c, 0, 43, 0
2, 92639, Note_on_c, 0, 50, 0
2, 92639, Note_on_c, 0, 55, 0
2, 92640, Note_on_c, 0, 43, 80
2, 92640, Note_on_c, 0, 50, 80
2, 92640, Note_on_c, 0, 55, 80
2, 93119, Note_on_c, 0, 43, 0
2, 93119, Note_on_c, 0, 50, 0
2, 93119, Note_on_c, 0, 55, 0
2, 93120, Note_on_c, 0, 43, 80
2, 93120, Note_on_c, 0, 50, 80
2, 93120, Note_on_c, 0, 55, 80
2, 93599, Note_on_c, 0, 43, 0
2, 93599, Note_on_c, 0, 50, 0
2, 93599, Note_on_c, 0, 55, 0
2, 93600, Note_on_c, 0, 42, 80
2, 93600, Note_on_c, 0, 51, 80
2, 93600, Note_on_c, 0, 54, 80
2, 94079, Note_on_c, 0, 42, 0
2, 94079, Note_on_c, 0, 51, 0
2, 94079, Note_on_c, 0, 54, 0
2, 94080, Note_on_c, 0, 39, 80
2, 94080, Note_on_c, 0, 46, 80
2, 94080, Note_on_c, 0, 51, 80
2, 94559, Note_on_c, 0, 39, 0
2, 94559, Note_on_c, 0, 46, 0
2, 94559, Note_on_c, 0, 51, 0
2, 94560, Note_on_c, 0, 36, 80
2, 94560, Note_on_c, 0, 43, 80
2, 94560, Note_on_c, 0, 48, 80
2, 95039, Note_on_c, 0, 36, 0
2, 95039, Note_on_c, 0, 43, 0
2, 95039, Note_on_c, 0, 48, 0
2, 95040, Note_on_c, 0, 43, 80
2, 95040, Note_on_c, 0, 50, 80
2, 95040, Note_on_c, 0, 55, 80
2, 95280, Note_on_c, 0, 55, 80
2, 95399, Note_on_c, 0, 55, 0
2, 95400, Note_on_c, 0, 55, 80
2, 95519, Note_on_c, 0, 55, 0
2, 95520, Note_on_c, 0, 55, 80
2, 95639, Note_on_c, 0, 55, 0
2, 95640, Note_on_c, 0, 55, 80
2, 95759, Note_on_c, 0, 55, 0
2, 95760, Note_on_c, 0, 55, 80
2, 95999, Note_on_c, 0, 43, 0
2, 95999, Note_on_c, 0, 50, 0
2, 95999, Note_on_c, 0, 55, 0
2, 95999, Note_on_c, 0, 55, 0
2, 96000, Note_on_c, 0, 43, 80
2, 96000, Note_on_c, 0, 50, 80
2, 96000, Note_on_c, 0, 55, 80
2, 96479, Note_on_c, 0, 43, 0
2, 96479, Note_on_c, 0, 50, 0
2, 96479, Note_on_c, 0, 55, 0
2, 96480, Note_on_c, 0, 43, 80
2, 96480, Note_on_c, 0, 50, 80
2, 96480, Note_on_c, 0, 55, 80
2, 96959, Note_on_c, 0, 43, 0
2, 96959, Note_on_c, 0, 50, 0
2, 96959, Note_on_c, 0, 55, 0
2, 96960, Note_on_c, 0, 43, 80
2, 96960, Note_on_c, 0, 50, 80
2, 96960, Note_on_c, 0, 55, 80
2, 97439, Note_on_c, 0, 43, 0
2, 97439, Note_on_c, 0, 50, 0
2, 97439, Note_on_c, 0, 55, 0
2, 97440, Note_on_c, 0, 43, 80
2, 97440, Note_on_c, 0, 50, 80
2, 97440, Note_on_c, 0, 55, 80
2, 97919, Note_on_c, 0, 43, 0
2, 97919, Note_on_c, 0, 50, 0
2, 97919, Note_on_c, 0, 55, 0
2, 97920, Note_on_c, 0, 37, 80
2, 97920, Note_on_c, 0, 44, 80
2, 97920, Note_on_c, 0, 49, 80
2, 98399, Note_on_c, 0, 37, 0
2, 98399, Note_on_c, 0, 44, 0
2, 98399, Note_on_c, 0, 49, 0
2, 98400, Note_on_c, 0, 37, 80
2, 98400, Note_on_c, 0, 44, 80
2, 98400, Note_on_c, 0, 49, 80
2, 98879, Note_on_c, 0, 37, 0
2, 98879, Note_on_c, 0, 44, 0
2, 98879, Note_on_c, 0, 49, 0
2, 98880, Note_on_c, 0, 37, 80
2, 98880, Note_on_c, 0, 44, 80
2, 98880, Note_on_c, 0, 49, 80
2, 99359, Note_on_c, 0, 37, 0
2, 99359, Note_on_c, 0, 44, 0
2, 99359, Note_on_c, 0, 49, 0
2, 99360, Note_on_c, 0, 37, 80
2, 99360, Note_on_c, 0, 44, 80
2, 99360, Note_on_c, 0, 49, 80
2, 99839, Note_on_c, 0, 37, 0
2, 99839, Note_on_c, 0, 44, 0
2, 99839, Note_on_c, 0, 49, 0
2, 99840, Note_on_c, 0, 39, 80
2, 99840, Note_on_c, 0, 46, 80
2, 99840, Note_on_c, 0, 51, 80
2, 100319, Note_on_c, 0, 39, 0
2, 100319, Note_on_c, 0, 46, 0
2, 100319, Note_on_c, 0, 51, 0
2, 100320, Note_on_c, 0, 39, 80
2, 100320, Note_on_c, 0, 46, 80
2, 100320, Note_on_c, 0, 51, 80
2, 100799, Note_on_c, 0, 39, 0
2, 100799, Note_on_c, 0, 46, 0
2, 100799, Note_on_c, 0, 51, 0
2, 100800, Note_on_c, 0, 36, 80
2, 100800, Note_on_c, 0, 43, 80
2, 100800, Note_on_c, 0, 48, 80
2, 101279, Note_on_c, 0, 36, 0
2, 101279, Note_on_c, 0, 43, 0
2, 101279, Note_on_c, 0, 48, 0
2, 101280, Note_on_c, 0, 39, 80
2, 101280, Note_on_c, 0, 46, 80
2, 101280, Note_on_c, 0, 51, 80
2, 101759, Note_on_c, 0, 39, 0
2, 101759, Note_on_c, 0, 46, 0
2, 101759, Note_on_c, 0, 51, 0
2, 101760, Note_on_c, 0, 43, 80
2, 101760, Note_on_c, 0, 50, 80
2, 101760, Note_on_c, 0, 55, 80
2, 102239, Note_on_c, 0, 43, 0
2, 102239, Note_on_c, 0, 50, 0
2, 102239, Note_on_c, 0, 55, 0
2, 102240, Note_on_c, 0, 39, 80
2, 102240, Note_on_c, 0, 46, 80
2, 102240, Note_on_c, 0, 51, 80
2, 102719, Note_on_c, 0, 39, 0
2, 102719, Note_on_c, 0, 46, 0
2, 102719, Note_on_c, 0, 51, 0
2, 102720, Note_on_c, 0, 43, 80
2, 102720, Note_on_c, 0, 50, 80
2, 102720, Note_on_c, 0, 55, 80
2, 103199, Note_on_c, 0, 43, 0
2, 103199, Note_on_c, 0, 50, 0
2, 103199, Note_on_c, 0, 55, 0
2, 103200, Note_on_c, 0, 43, 80
2, 103200, Note_on_c, 0, 50, 80
2, 103200, Note_on_c, 0, 55, 80
2, 103679, Note_on_c, 0, 43, 0
2, 103679, Note_on_c, 0, 50, 0
2, 103679, Note_on_c, 0, 55, 0
2, 103680, Note_on_c, 0, 39, 80
2, 103680, Note_on_c, 0, 46, 80
2, 103680, Note_on_c, 0, 51, 80
2, 104159, Note_on_c, 0, 39, 0
2, 104159, Note_on_c, 0, 46, 0
2, 104159, Note_on_c, 0, 51, 0
2, 104160, Note_on_c, 0, 39, 80
2, 104160, Note_on_c, 0, 46, 80
2, 104160, Note_on_c, 0, 51, 80
2, 104639, Note_on_c, 0, 39, 0
2, 104639, Note_on_c, 0, 46, 0
2, 104639, Note_on_c, 0, 51, 0
2, 104640, Note_on_c, 0, 43, 80
2, 104640, Note_on_c, 0, 50, 80
2, 104640, Note_on_c, 0, 55, 80
2, 105119, Note_on_c, 0, 43, 0
2, 105119, Note_on_c, 0, 50, 0
2, 105119, Note_on_c, 0, 55, 0
2, 105120, Note_on_c, 0, 43, 80
2, 105120, Note_on_c, 0, 50, 80
2, 105120, Note_on_c, 0, 55, 80
2, 105599, Note_on_c, 0, 43, 0
2, 105599, Note_on_c, 0, 50, 0
2, 105599, Note_on_c, 0, 55, 0
2, 105600, Note_on_c, 0, 37, 80
2, 105600, Note_on_c, 0, 44, 80
2, 105600, Note_on_c, 0, 49, 80
2, 106079, Note_on_c, 0, 37, 0
2, 106079, Note_on_c, 0, 44, 0
2, 106079, Note_on_c, 0, 49, 0
2, 106080, Note_on_c, 0, 37, 80
2, 106080, Note_on_c, 0, 44, 80
2, 106080, Note_on_c, 0, 49, 80
2, 106559, Note_on_c, 0, 37, 0
2, 106559, Note_on_c, 0, 44, 0
2, 106559, Note_on_c, 0, 49, 0
2, 106560, Note_on_c, 0, 37, 80
2, 106560, Note_on_c, 0, 44, 80
2, 106560, Note_on_c, 0, 49, 80
2, 107039, Note_on_c, 0, 37, 0
2, 107039, Note_on_c, 0, 44, 0
2, 107039, Note_on_c, 0, 49, 0
2, 107040, Note_on_c, 0, 37, 80
2, 107040, Note_on_c, 0, 44, 80
2, 107040, Note_on_c, 0, 49, 80
2, 107519, Note_on_c, 0, 37, 0
2, 107519, Note_on_c, 0, 44, 0
2, 107519, Note_on_c, 0, 49, 0
2, 107520, Note_on_c, 0, 39, 80
2, 107520, Note_on_c, 0, 46, 80
2, 107520, Note_on_c, 0, 51, 80
2, 107999, Note_on_c, 0, 39, 0
2, 107999, Note_on_c, 0, 46, 0
2, 107999, Note_on_c, 0, 51, 0
2, 108000, Note_on_c, 0, 39, 80
2, 108000, Note_on_c, 0, 46, 80
2, 108000, Note_on_c, 0, 51, 80
2, 108479, Note_on_c, 0, 39, 0
2, 108479, Note_on_c, 0, 46, 0
2, 108479, Note_on_c, 0, 51, 0
2, 108480, Note_on_c, 0, 39, 80
2, 108480, Note_on_c, 0, 46, 80
2, 108480, Note_on_c, 0, 51, 80
2, 108959, Note_on_c, 0, 39, 0
2, 108959, Note_on_c, 0, 46, 0
2, 108959, Note_on_c, 0, 51, 0
2, 108960, Note_on_c, 0, 36, 80
2, 108960, Note_on_c, 0, 43, 80
2, 108960, Note_on_c, 0, 48, 80
2, 109439, Note_on_c, 0, 36, 0
2, 109439, Note_on_c, 0, 43, 0
2, 109439, Note_on_c, 0, 48, 0
2, 109440, Note_on_c, 0, 43, 80
2, 109440, Note_on_c, 0, 50, 80
2, 109440, Note_on_c, 0, 55, 80
2, 109919, Note_on_c, 0, 43, 0
2, 109919, Note_on_c, 0, 50, 0
2, 109919, Note_on_c, 0, 55, 0
2, 109920, Note_on_c, 0, 42, 80
2, 109920, Note_on_c, 0, 46, 80
2, 109920, Note_on_c, 0, 51, 80
2, 109920, Note_on_c, 0, 54, 80
2, 110399, Note_on_c, 0, 42, 0
2, 110399, Note_on_c, 0, 46, 0
2, 110399, Note_on_c, 0, 51, 0
2, 110399, Note_on_c, 0, 54, 0
2, 110400, Note_on_c, 0, 43, 80
2, 110400, Note_on_c, 0, 50, 80
2, 110400, Note_on_c, 0, 55, 80
2, 110879, Note_on_c, 0, 43, 0
2, 110879, Note_on_c, 0, 50, 0
2, 110879, Note_on_c, 0, 55, 0
2, 110880, Note_on_c, 0, 43, 80
2, 110880, Note_on_c, 0, 50, 80
2, 110880, Note_on_c, 0, 55, 80
2, 111359, Note_on_c, 0, 43, 0
2, 111359, Note_on_c, 0, 50, 0
2, 111359, Note_on_c, 0, 55, 0
2, 111840, Note_on_c, 0, 43, 80
2, 111840, Note_on_c, 0, 50, 80
2, 111840, Note_on_c, 0, 55, 80
2, 111959, Note_on_c, 0, 43, 0
2, 111959, Note_on_c, 0, 50, 0
2, 111959, Note_on_c, 0, 55, 0
2, 111960, Note_on_c, 0, 43, 80
2, 111960, Note_on_c, 0, 50, 80
2, 111960, Note_on_c, 0, 55, 80
2, 112079, Note_on_c, 0, 43, 0
2, 112079, Note_on_c, 0, 50, 0
2, 112079, Note_on_c, 0, 55, 0
2, 112080, Note_on_c, 0, 43, 80
2, 112080, Note_on_c, 0, 50, 80
2, 112080, Note_on_c, 0, 55, 80
2, 112199, Note_on_c, 0, 43, 0
2, 112199, Note_on_c, 0, 50, 0
2, 112199, Note_on_c, 0, 55, 0
2, 112560, Note_on_c, 0, 43, 80
2, 112560, Note_on_c, 0, 50, 80
2, 112560, Note_on_c, 0, 55, 80
2, 112799, Note_on_c, 0, 43, 0
2, 112799, Note_on_c, 0, 50, 0
2, 112799, Note_on_c, 0, 55, 0
2, 113040, Note_on_c, 0, 42, 80
2, 113040, Note_on_c, 0, 46, 80
2, 113040, Note_on_c, 0, 51, 80
2, 113040, Note_on_c, 0, 54, 80
2, 113279, Note_on_c, 0, 42, 0
2, 113279, Note_on_c, 0, 46, 0
2, 113279, Note_on_c, 0, 51, 0
2, 113279, Note_on_c, 0, 54, 0
2, 113520, Note_on_c, 0, 43, 80
2, 113520, Note_on_c, 0, 50, 80
2, 113520, Note_on_c, 0, 55, 80
2, 113759, Note_on_c, 0, 43, 0
2, 113759, Note_on_c, 0, 50, 0
2, 113759, Note_on_c, 0, 55, 0
2, 114000, Note_on_c, 0, 42, 80
2, 114000, Note_on_c, 0, 46, 80
2, 114000, Note_on_c, 0, 51, 80
2, 114000, Note_on_c, 0, 54, 80
2, 114239, Note_on_c, 0, 42, 0
2, 114239, Note_on_c, 0, 46, 0
2, 114239, Note_on_c, 0, 51, 0
2, 114239, Note_on_c, 0, 54, 0
2, 114480, Note_on_c, 0, 43, 80
2, 114480, Note_on_c, 0, 50, 80
2, 114480, Note_on_c, 0, 55, 80
2, 114599, Note_on_c, 0, 43, 0
2, 114599, Note_on_c, 0, 50, 0
2, 114599, Note_on_c, 0, 55, 0
2, 114600, Note_on_c, 0, 43, 80
2, 114600, Note_on_c, 0, 50, 80
2, 114600, Note_on_c, 0, 55, 80
2, 114719, Note_on_c, 0, 43, 0
2, 114719, Note_on_c, 0, 50, 0
2, 114719, Note_on_c, 0, 55, 0
2, 114720, Note_on_c, 0, 43, 80
2, 114720, Note_on_c, 0, 50, 80
2, 114720, Note_on_c, 0, 55, 80
2, 114839, Note_on_c, 0, 43, 0
2, 114839, Note_on_c, 0, 50, 0
2, 114839, Note_on_c, 0, 55, 0
2, 114840, Note_on_c, 0, 43, 80
2, 114840, Note_on_c, 0, 50, 80
2, 114840, Note_on_c, 0, 55, 80
2, 114959, Note_on_c, 0, 43, 0
2, 114959, Note_on_c, 0, 50, 0
2, 114959, Note_on_c, 0, 55, 0
2, 114960, Note_on_c, 0, 43, 80
2, 114960, Note_on_c, 0, 50, 80
2, 114960, Note_on_c, 0, 55, 80
2, 115079, Note_on_c, 0, 43, 0
2, 115079, Note_on_c, 0, 50, 0
2, 115079, Note_on_c, 0, 55, 0
2, 115440, Note_on_c, 0, 43, 96
2, 115440, Note_on_c, 0, 50, 96
2, 115440, Note_on_c, 0, 55, 96
2, 115679, Note_on_c, 0, 43, 0
2, 115679, Note_on_c, 0, 50, 0
2, 115679, Note_on_c, 0, 55, 0
2, 115920, Note_on_c, 0, 43, 96
2, 115920, Note_on_c, 0, 50, 96
2, 115920, Note_on_c, 0, 55, 96
2, 116039, Note_on_c, 0, 43, 0
2, 116039, Note_on_c, 0, 50, 0
2, 116039, Note_on_c, 0, 55, 0
2, 116040, Note_on_c, 0, 43, 96
2, 116040, Note_on_c, 0, 50, 96
2, 116040, Note_on_c, 0, 55, 96
2, 116159, Note_on_c, 0, 43, 0
2, 116159, Note_on_c, 0, 50, 0
2, 116159, Note_on_c, 0, 55, 0
2, 116400, Note_on_c, 0, 43, 96
2, 116400, Note_on_c, 0, 50, 96
2, 116400, Note_on_c, 0, 55, 96
2, 116639, Note_on_c, 0, 43, 0
2, 116639, Note_on_c, 0, 50, 0
2, 116639, Note_on_c, 0, 55, 0
2, 116880, Note_on_c, 0, 39, 96
2, 116880, Note_on_c, 0, 51, 96
2, 117119, Note_on_c, 0, 39, 0
2, 117119, Note_on_c, 0, 51, 0
2, 117360, Note_on_c, 0, 36, 96
2, 117360, Note_on_c, 0, 48, 96
2, 117599, Note_on_c, 0, 36, 0
2, 117599, Note_on_c, 0, 48, 0
2, 117840, Note_on_c, 0, 39, 96
2, 117840, Note_on_c, 0, 51, 96
2, 118079, Note_on_c, 0, 39, 0
2, 118079, Note_on_c, 0, 51, 0
2, 118320, Note_on_c, 0, 43, 96
2, 118320, Note_on_c, 0, 50, 96
2, 118320, Note_on_c, 0, 55, 96
2, 118439, Note_on_c, 0, 43, 0
2, 118439, Note_on_c, 0, 50, 0
2, 118439, Note_on_c, 0, 55, 0
2, 118440, Note_on_c, 0, 43, 96
2, 118440, Note_on_c, 0, 50, 96
2, 118440, Note_on_c, 0, 55, 96
2, 118559, Note_on_c, 0, 43, 0
2, 118559, Note_on_c, 0, 50, 0
2, 118559, Note_on_c, 0, 55, 0
2, 118560, Note_on_c, 0, 43, 96
2, 118560, Note_on_c, 0, 50, 96
2, 118560, Note_on_c, 0, 55, 96
2, 118679, Note_on_c, 0, 43, 0
2, 118679, Note_on_c, 0, 50, 0
2, 118679, Note_on_c, 0, 55, 0
2, 118680, Note_on_c, 0, 43, 96
2, 118680, Note_on_c, 0, 50, 96
2, 118680, Note_on_c, 0, 55, 96
2, 118799, Note_on_c, 0, 43, 0
2, 118799, Note_on_c, 0, 50, 0
2, 118799, Note_on_c, 0, 55, 0
2, 118800, Note_on_c, 0, 43, 96
2, 118800, Note_on_c, 0, 50, 96
2, 118800, Note_on_c, 0, 55, 96
2, 118919, Note_on_c, 0, 43, 0
2, 118919, Note_on_c, 0, 50, 0
2, 118919, Note_on_c, 0, 55, 0
2, 119040, Note_on_c, 0, 43, 96
2, 119040, Note_on_c, 0, 51, 96
2, 119040, Note_on_c, 0, 55, 96
2, 119519, Note_on_c, 0, 43, 0
2, 119519, Note_on_c, 0, 51, 0
2, 119519, Note_on_c, 0, 55, 0
2, 119520, Note_on_c, 0, 43, 96
2, 119520, Note_on_c, 0, 51, 96
2, 119520, Note_on_c, 0, 55, 96
2, 119999, Note_on_c, 0, 43, 0
2, 119999, Note_on_c, 0, 51, 0
2, 119999, Note_on_c, 0, 55, 0
2, 120000, Note_on_c, 0, 43, 96
2, 120000, Note_on_c, 0, 50, 96
2, 120000, Note_on_c, 0, 55, 96
2, 120479, Note_on_c, 0, 43, 0
2, 120479, Note_on_c, 0, 50, 0
2, 120479, Note_on_c, 0, 55, 0
2, 120480, Note_on_c, 0, 43, 96
2, 120480, Note_on_c, 0, 50, 96
2, 120480, Note_on_c, 0, 55, 96
2, 120959, Note_on_c, 0, 43, 0
2, 120959, Note_on_c, 0, 50, 0
2, 120959, Note_on_c, 0, 55, 0
2, 120960, Note_on_c, 0, 37, 96
2, 120960, Note_on_c, 0, 44, 96
2, 120960, Note_on_c, 0, 49, 96
2, 121439, Note_on_c, 0, 37, 0
2, 121439, Note_on_c, 0, 44, 0
2, 121439, Note_on_c, 0, 49, 0
2, 121440, Note_on_c, 0, 37, 96
2, 121440, Note_on_c, 0, 44, 96
2, 121440, Note_on_c, 0, 49, 96
2, 121919, Note_on_c, 0, 37, 0
2, 121919, Note_on_c, 0, 44, 0
2, 121919, Note_on_c, 0, 49, 0
2, 121920, Note_on_c, 0, 37, 96
2, 121920, Note_on_c, 0, 44, 96
2, 121920, Note_on_c, 0, 49, 96
2, 122399, Note_on_c, 0, 37, 0
2, 122399, Note_on_c, 0, 44, 0
2, 122399, Note_on_c, 0, 49, 0
2, 122400, Note_on_c, 0, 37, 96
2, 122400, Note_on_c, 0, 44, 96
2, 122400, Note_on_c, 0, 49, 96
2, 122879, Note_on_c, 0, 37, 0
2, 122879, Note_on_c, 0, 44, 0
2, 122879, Note_on_c, 0, 49, 0
2, 122880, Note_on_c, 0, 39, 96
2, 122880, Note_on_c, 0, 46, 96
2, 122880, Note_on_c, 0, 51, 96
2, 123359, Note_on_c, 0, 39, 0
2, 123359, Note_on_c, 0, 46, 0
2, 123359, Note_on_c, 0, 51, 0
2, 123360, Note_on_c, 0, 39, 96
2, 123360, Note_on_c, 0, 46, 96
2, 123360, Note_on_c, 0, 51, 96
2, 123839, Note_on_c, 0, 39, 0
2, 123839, Note_on_c, 0, 46, 0
2, 123839, Note_on_c, 0, 51, 0
2, 123840, Note_on_c, 0, 39, 96
2, 123840, Note_on_c, 0, 46, 96
2, 123840, Note_on_c, 0, 51, 96
2, 124319, Note_on_c, 0, 39, 0
2, 124319, Note_on_c, 0, 46, 0
2, 124319, Note_on_c, 0, 51, 0
2, 124320, Note_on_c, 0, 36, 96
2, 124320, Note_on_c, 0, 43, 96
2, 124320, Note_on_c, 0, 48, 96
2, 124799, Note_on_c, 0, 36, 0
2, 124799, Note_on_c, 0, 43, 0
2, 124799, Note_on_c, 0, 48, 0
2, 124800, Note_on_c, 0, 43, 96
2, 124800, Note_on_c, 0, 50, 96
2, 124800, Note_on_c, 0, 55, 96
2, 125279, Note_on_c, 0, 43, 0
2, 125279, Note_on_c, 0, 50, 0
2, 125279, Note_on_c, 0, 55, 0
2, 125280, Note_on_c, 0, 42, 96
2, 125280, Note_on_c, 0, 46, 96
2, 125280, Note_on_c, 0, 51, 96
2, 125280, Note_on_c, 0, 54, 96
2, 125759, Note_on_c, 0, 42, 0
2, 125759, Note_on_c, 0, 46, 0
2, 125759, Note_on_c, 0, 51, 0
2, 125759, Note_on_c, 0, 54, 0
2, 125760, Note_on_c, 0, 43, 96
2, 125760, Note_on_c, 0, 50, 96
2, 125760, Note_on_c, 0, 55, 96
2, 125999, Note_on_c, 0, 43, 0
2, 125999, Note_on_c, 0, 50, 0
2, 125999, Note_on_c, 0, 55, 0
2, 126000, Note_on_c, 0, 43, 96
2, 126000, Note_on_c, 0, 50, 96
2, 126000, Note_on_c, 0, 55, 96
2, 126119, Note_on_c, 0, 43, 0
2, 126119, Note_on_c, 0, 50, 0
2, 126119, Note_on_c, 0, 55, 0
2, 126120, Note_on_c, 0, 43, 96
2, 126120, Note_on_c, 0, 50, 96
2, 126120, Note_on_c, 0, 55, 96
2, 126239, Note_on_c, 0, 43, 0
2, 126239, Note_on_c, 0, 50, 0
2, 126239, Note_on_c, 0, 55, 0
2, 126240, Note_on_c, 0, 43, 96
2, 126240, Note_on_c, 0, 50, 96
2, 126240, Note_on_c, 0, 55, 96
2, 126359, Note_on_c, 0, 43, 0
2, 126359, Note_on_c, 0, 50, 0
2, 126359, Note_on_c, 0, 55, 0
2, 126360, Note_on_c, 0, 43, 96
2, 126360, Note_on_c, 0, 50, 96
2, 126360, Note_on_c, 0, 55, 96
2, 126479, Note_on_c, 0, 43, 0
2, 126479, Note_on_c, 0, 50, 0
2, 126479, Note_on_c, 0, 55, 0
2, 126480, Note_on_c, 0, 43, 96
2, 126480, Note_on_c, 0, 50, 96
2, 126480, Note_on_c, 0, 55, 96
2, 126599, Note_on_c, 0, 43, 0
2, 126599, Note_on_c, 0, 50, 0
2, 126599, Note_on_c, 0, 55, 0
2, 126720, Note_on_c, 0, 55, 96
2, 126720, Note_on_c, 0, 43, 96
2, 127199, Note_on_c, 0, 55, 0
2, 127199, Note_on_c, 0, 43, 0
2, 127200, Note_on_c, 0, 55, 96
2, 127200, Note_on_c, 0, 43, 96
2, 127439, Note_on_c, 0, 55, 0
2, 127440, Note_on_c, 0, 55, 96
2, 127519, Note_on_c, 0, 55, 0
2, 127520, Note_on_c, 0, 55, 96
2, 127599, Note_on_c, 0, 55, 0
2, 127600, Note_on_c, 0, 55, 96
2, 127679, Note_on_c, 0, 43, 0
2, 127679, Note_on_c, 0, 55, 0
2, 127680, Note_on_c, 0, 55, 96
2, 127680, Note_on_c, 0, 43, 96
2, 127919, Note_on_c, 0, 55, 0
2, 127920, Note_on_c, 0, 55, 96
2, 128039, Note_on_c, 0, 55, 0
2, 128040, Note_on_c, 0, 55, 96
2, 128159, Note_on_c, 0, 43, 0
2, 128159, Note_on_c, 0, 55, 0
2, 128160, Note_on_c, 0, 51, 96
2, 128160, Note_on_c, 0, 54, 96
2, 128160, Note_on_c, 0, 39, 96
2, 128279, Note_on_c, 0, 51, 0
2, 128279, Note_on_c, 0, 54, 0
2, 128280, Note_on_c, 0, 54, 96
2, 128399, Note_on_c, 0, 54, 0
2, 128400, Note_on_c, 0, 54, 96
2, 128639, Note_on_c, 0, 39, 0
2, 128639, Note_on_c, 0, 54, 0
2, 128640, Note_on_c, 0, 55, 96
2, 128640, Note_on_c, 0, 43, 96
2, 129119, Note_on_c, 0, 55, 0
2, 129119, Note_on_c, 0, 43, 0
2, 129120, Note_on_c, 0, 55, 96
2, 129120, Note_on_c, 0, 43, 96
2, 129359, Note_on_c, 0, 55, 0
2, 129360, Note_on_c, 0, 55, 96
2, 129439, Note_on_c, 0, 55, 0
2, 129440, Note_on_c, 0, 55, 96
2, 129519, Note_on_c, 0, 55, 0
2, 129520, Note_on_c, 0, 55, 96
2, 129599, Note_on_c, 0, 43, 0
2, 129599, Note_on_c, 0, 55, 0
2, 129600, Note_on_c, 0, 55, 96
2, 129600, Note_on_c, 0, 43, 96
2, 129839, Note_on_c, 0, 55, 0
2, 129840, Note_on_c, 0, 55, 96
2, 129959, Note_on_c, 0, 55, 0
2, 129960, Note_on_c, 0, 55, 96
2, 130079, Note_on_c, 0, 43, 0
2, 130079, Note_on_c, 0, 55, 0
2, 130080, Note_on_c, 0, 51, 96
2, 130080, Note_on_c, 0, 54, 96
2, 130080, Note_on_c, 0, 39, 96
2, 130199, Note_on_c, 0, 51, 0
2, 130199, Note_on_c, 0, 54, 0
2, 130200, Note_on_c, 0, 54, 96
2, 130319, Note_on_c, 0, 54, 0
2, 130320, Note_on_c, 0, 54, 96
2, 130559, Note_on_c, 0, 39, 0
2, 130559, Note_on_c, 0, 54, 0
2, 130560, Note_on_c, 0, 55, 96
2, 130560, Note_on_c, 0, 43, 96
2, 131039, Note_on_c, 0, 55, 0
2, 131039, Note_on_c, 0, 43, 0
2, 131040, Note_on_c, 0, 55, 96
2, 131040, Note_on_c, 0, 43, 96
2, 131279, Note_on_c, 0, 55, 0
2, 131280, Note_on_c, 0, 55, 96
2, 131359, Note_on_c, 0, 55, 0
2, 131360, Note_on_c, 0, 55, 96
2, 131439, Note_on_c, 0, 55, 0
2, 131440, Note_on_c, 0, 55, 96
2, 131519, Note_on_c, 0, 43, 0
2, 131519, Note_on_c, 0, 55, 0
2, 131520, Note_on_c, 0, 55, 96
2, 131520, Note_on_c, 0, 43, 96
2, 131759, Note_on_c, 0, 55, 0
2, 131760, Note_on_c, 0, 55, 96
2, 131879, Note_on_c, 0, 55, 0
2, 131880, Note_on_c, 0, 55, 96
2, 131999, Note_on_c, 0, 43, 0
2, 131999, Note_on_c, 0, 55, 0
2, 132000, Note_on_c, 0, 54, 96
2, 132000, Note_on_c, 0, 58, 96
2, 132000, Note_on_c, 0, 39, 96
2, 132119, Note_on_c, 0, 54, 0
2, 132119, Note_on_c, 0, 58, 0
2, 132120, Note_on_c, 0, 54, 96
2, 132239, Note_on_c, 0, 54, 0
2, 132240, Note_on_c, 0, 54, 96
2, 132479, Note_on_c, 0, 39, 0
2, 132479, Note_on_c, 0, 54, 0
2, 132480, Note_on_c, 0, 55, 96
2, 132480, Note_on_c, 0, 43, 96
2, 132959, Note_on_c, 0, 55, 0
2, 132959, Note_on_c, 0, 43, 0
2, 132960, Note_on_c, 0, 55, 96
2, 132960, Note_on_c, 0, 43, 96
2, 133199, Note_on_c, 0, 55, 0
2, 133200, Note_on_c, 0, 55, 96
2, 133279, Note_on_c, 0, 55, 0
2, 133280, Note_on_c, 0, 55, 96
2, 133359, Note_on_c, 0, 55, 0
2, 133360, Note_on_c, 0, 55, 96
2, 133439, Note_on_c, 0, 43, 0
2, 133439, Note_on_c, 0, 55, 0
2, 133440, Note_on_c, 0, 55, 96
2, 133440, Note_on_c, 0, 43, 96
2, 133679, Note_on_c, 0, 55, 0
2, 133680, Note_on_c, 0, 55, 96
2, 133799, Note_on_c, 0, 55, 0
2, 133800, Note_on_c, 0, 55, 96
2, 133919, Note_on_c, 0, 43, 0
2, 133919, Note_on_c, 0, 55, 0
2, 133920, Note_on_c, 0, 54, 96
2, 133920, Note_on_c, 0, 58, 96
2, 133920, Note_on_c, 0, 39, 96
2, 134039, Note_on_c, 0, 54, 0
2, 134039, Note_on_c, 0, 58, 0
2, 134040, Note_on_c, 0, 54, 96
2, 134159, Note_on_c, 0, 54, 0
2, 134160, Note_on_c, 0, 54, 96
2, 134399, Note_on_c, 0, 39, 0
2, 134399, Note_on_c, 0, 54, 0
2, 134400, Note_on_c, 0, 55, 96
2, 134879, Note_on_c, 0, 55, 0
2, 134880, Note_on_c, 0, 54, 96
2, 135359, Note_on_c, 0, 54, 0
2, 135360, Note_on_c, 0, 52, 96
2, 135839, Note_on_c, 0, 52, 0
2, 135840, Note_on_c, 0, 50, 96
2, 136319, Note_on_c, 0, 50, 0
2, 136320, Note_on_c, 0, 48, 96
2, 136799, Note_on_c, 0, 48, 0
2, 136800, Note_on_c, 0, 46, 96
2, 137279, Note_on_c, 0, 46, 0
2, 137280, Note_on_c, 0, 45, 96
2, 137759, Note_on_c, 0, 45, 0
2, 137760, Note_on_c, 0, 44, 96
2, 138239, Note_on_c, 0, 44, 0
2, 138240, Note_on_c, 0, 43, 96
2, 138719, Note_on_c, 0, 43, 0
2, 138720, Note_on_c, 0, 45, 96
2, 138959, Note_on_c, 0, 45, 0
2, 138960, Note_on_c, 0, 46, 96
2, 139039, Note_on_c, 0, 46, 0
2, 139040, Note_on_c, 0, 46, 96
2, 139119, Note_on_c, 0, 46, 0
2, 139120, Note_on_c, 0, 46, 96
2, 139199, Note_on_c, 0, 46, 0
2, 139200, Note_on_c, 0, 48, 96
2, 139439, Note_on_c, 0, 48, 0
2, 139440, Note_on_c, 0, 50, 96
2, 139559, Note_on_c, 0, 50, 0
2, 139560, Note_on_c, 0, 50, 96
2, 139679, Note_on_c, 0, 50, 0
2, 139680, Note_on_c, 0, 51, 96
2, 139799, Note_on_c, 0, 51, 0
2, 139800, Note_on_c, 0, 51, 96
2, 139919, Note_on_c, 0, 51, 0
2, 139920, Note_on_c, 0, 52, 96
2, 140159, Note_on_c, 0, 52, 0
2, 140160, Note_on_c, 0, 53, 96
2, 140639, Note_on_c, 0, 53, 0
2, 140640, Note_on_c, 0, 54, 96
2, 140879, Note_on_c, 0, 54, 0
2, 140880, Note_on_c, 0, 54, 96
2, 140959, Note_on_c, 0, 54, 0
2, 140960, Note_on_c, 0, 54, 96
2, 141039, Note_on_c, 0, 54, 0
2, 141040, Note_on_c, 0, 54, 96
2, 141119, Note_on_c, 0, 54, 0
2, 141120, Note_on_c, 0, 55, 96
2, 141359, Note_on_c, 0, 55, 0
2, 141360, Note_on_c, 0, 55, 96
2, 141479, Note_on_c, 0, 55, 0
2, 141480, Note_on_c, 0, 55, 96
2, 141599, Note_on_c, 0, 55, 0
2, 141600, Note_on_c, 0, 57, 96
2, 141719, Note_on_c, 0, 57, 0
2, 141720, Note_on_c, 0, 57, 96
2, 141839, Note_on_c, 0, 57, 0
2, 141840, Note_on_c, 0, 57, 96
2, 142079, Note_on_c, 0, 57, 0
2, 142080, Note_on_c, 0, 58, 96
2, 142080, Note_on_c, 0, 38, 96
2, 142159, Note_on_c, 0, 58, 0
2, 142160, Note_on_c, 0, 58, 96
2, 142239, Note_on_c, 0, 58, 0
2, 142240, Note_on_c, 0, 58, 96
2, 142319, Note_on_c, 0, 38, 0
2, 142319, Note_on_c, 0, 58, 0
2, 142320, Note_on_c, 0, 48, 80
2, 142320, Note_on_c, 0, 59, 80
2, 142320, Note_on_c, 0, 39, 80
2, 142399, Note_on_c, 0, 48, 0
2, 142399, Note_on_c, 0, 59, 0
2, 142400, Note_on_c, 0, 46, 80
2, 142479, Note_on_c, 0, 46, 0
2, 142480, Note_on_c, 0, 48, 81
2, 142559, Note_on_c, 0, 48, 0
2, 142560, Note_on_c, 0, 50, 82
2, 142639, Note_on_c, 0, 50, 0
2, 142640, Note_on_c, 0, 48, 83
2, 142719, Note_on_c, 0, 48, 0
2, 142720, Note_on_c, 0, 50, 84
2, 142799, Note_on_c, 0, 50, 0
2, 142800, Note_on_c, 0, 51, 85
2, 142879, Note_on_c, 0, 51, 0
2, 142880, Note_on_c, 0, 50, 86
2, 142959, Note_on_c, 0, 50, 0
2, 142960, Note_on_c, 0, 51, 87
2, 143039, Note_on_c, 0, 51, 0
2, 143040, Note_on_c, 0, 53, 88
2, 143119, Note_on_c, 0, 53, 0
2, 143120, Note_on_c, 0, 51, 89
2, 143199, Note_on_c, 0, 51, 0
2, 143200, Note_on_c, 0, 53, 90
2, 143279, Note_on_c, 0, 53, 0
2, 143280, Note_on_c, 0, 54, 91
2, 143359, Note_on_c, 0, 54, 0
2, 143360, Note_on_c, 0, 53, 92
2, 143439, Note_on_c, 0, 53, 0
2, 143440, Note_on_c, 0, 54, 93
2, 143519, Note_on_c, 0, 54, 0
2, 143520, Note_on_c, 0, 55, 94
2, 143599, Note_on_c, 0, 55, 0
2, 143600, Note_on_c, 0, 54, 95
2, 143679, Note_on_c, 0, 54, 0
2, 143680, Note_on_c, 0, 55, 96
2, 143759, Note_on_c, 0, 55, 0
2, 143760, Note_on_c, 0, 57, 97
2, 143839, Note_on_c, 0, 57, 0
2, 143840, Note_on_c, 0, 55, 98
2, 143919, Note_on_c, 0, 55, 0
2, 143920, Note_on_c, 0, 57, 99
2, 143999, Note_on_c, 0, 57, 0
2, 144000, Note_on_c, 0, 58, 100
2, 144079, Note_on_c, 0, 58, 0
2, 144080, Note_on_c, 0, 55, 101
2, 144159, Note_on_c, 0, 55, 0
2, 144160, Note_on_c, 0, 57, 103
2, 144239, Note_on_c, 0, 57, 0
2, 144240, Note_on_c, 0, 58, 104
2, 144319, Note_on_c, 0, 58, 0
2, 144320, Note_on_c, 0, 60, 105
2, 144399, Note_on_c, 0, 60, 0
2, 144400, Note_on_c, 0, 62, 106
2, 144479, Note_on_c, 0, 62, 0
2, 145919, Note_on_c, 0, 39, 0
2, 145920, Note_on_c, 0, 43, 126
2, 145920, Note_on_c, 0, 50, 126
2, 145920, Note_on_c, 0, 55, 126
2, 146399, Note_on_c, 0, 43, 0
2, 146399, Note_on_c, 0, 50, 0
2, 146399, Note_on_c, 0, 55, 0
2, 146400, Note_on_c, 0, 43, 126
2, 146400, Note_on_c, 0, 50, 126
2, 146400, Note_on_c, 0, 55, 126
2, 146639, Note_on_c, 0, 43, 0
2, 146639, Note_on_c, 0, 50, 0
2, 146639, Note_on_c, 0, 55, 0
2, 146640, Note_on_c, 0, 43, 126
2, 146640, Note_on_c, 0, 50, 126
2, 146640, Note_on_c, 0, 55, 126
2, 146719, Note_on_c, 0, 43, 0
2, 146719, Note_on_c, 0, 50, 0
2, 146719, Note_on_c, 0, 55, 0
2, 146720, Note_on_c, 0, 43, 126
2, 146720, Note_on_c, 0, 50, 126
2, 146720, Note_on_c, 0, 55, 126
2, 146799, Note_on_c, 0, 43, 0
2, 146799, Note_on_c, 0, 50, 0
2, 146799, Note_on_c, 0, 55, 0
2, 146800, Note_on_c, 0, 43, 126
2, 146800, Note_on_c, 0, 50, 126
2, 146800, Note_on_c, 0, 55, 126
2, 146879, Note_on_c, 0, 43, 0
2, 146879, Note_on_c, 0, 50, 0
2, 146879, Note_on_c, 0, 55, 0
2, 146880, Note_on_c, 0, 39, 126
2, 146880, Note_on_c, 0, 46, 126
2, 146880, Note_on_c, 0, 51, 126
2, 146999, Note_on_c, 0, 39, 0
2, 146999, Note_on_c, 0, 46, 0
2, 146999, Note_on_c, 0, 51, 0
2, 147000, Note_on_c, 0, 39, 126
2, 147000, Note_on_c, 0, 46, 126
2, 147000, Note_on_c, 0, 51, 126
2, 147119, Note_on_c, 0, 39, 0
2, 147119, Note_on_c, 0, 46, 0
2, 147119, Note_on_c, 0, 51, 0
2, 147360, Note_on_c, 0, 31, 126
2, 147360, Note_on_c, 0, 38, 126
2, 147360, Note_on_c, 0, 43, 126
2, 147599, Note_on_c, 0, 31, 0
2, 147599, Note_on_c, 0, 38, 0
2, 147599, Note_on_c, 0, 43, 0
2, 147840, Note_on_c, 0, 39, 126
2, 147840, Note_on_c, 0, 46, 126
2, 147840, Note_on_c, 0, 51, 126
2, 148319, Note_on_c, 0, 39, 0
2, 148319, Note_on_c, 0, 46, 0
2, 148319, Note_on_c, 0, 51, 0
2, 148320, Note_on_c, 0, 31, 126
2, 148320, Note_on_c, 0, 38, 126
2, 148320, Note_on_c, 0, 43, 126
2, 148559, Note_on_c, 0, 31, 0
2, 148559, Note_on_c, 0, 38, 0
2, 148559, Note_on_c, 0, 43, 0
2, 148560, Note_on_c, 0, 39, 126
2, 148560, Note_on_c, 0, 51, 126
2, 148799, Note_on_c, 0, 39, 0
2, 148799, Note_on_c, 0, 51, 0
2, 148800, Note_on_c, 0, 38, 126
2, 148800, Note_on_c, 0, 50, 126
2, 149039, Note_on_c, 0, 38, 0
2, 149039, Note_on_c, 0, 50, 0
2, 149040, Note_on_c, 0, 31, 126
2, 149040, Note_on_c, 0, 38, 126
2, 149040, Note_on_c, 0, 43, 126
2, 149279, Note_on_c, 0, 31, 0
2, 149279, Note_on_c, 0, 38, 0
2, 149279, Note_on_c, 0, 43, 0
2, 149280, End_track
0, 0, End_of_file
